<svg xmlns="http://www.w3.org/2000/svg" width="800" height="800" viewBox="0 0 427 427"><path d="M340.5 0h-254A7.5 7.5 0 0 0 79 7.5v401.438a7.5 7.5 0 0 0 7.5 7.5h17.158a7.473 7.473 0 0 0-.658 3.063 7.5 7.5 0 0 0 7.5 7.5h24a7.5 7.5 0 0 0 7.5-7.5 7.48 7.48 0 0 0-.658-3.063h144.316a7.473 7.473 0 0 0-.658 3.063 7.5 7.5 0 0 0 7.5 7.5h24a7.5 7.5 0 0 0 7.5-7.5 7.48 7.48 0 0 0-.658-3.063H340.5a7.5 7.5 0 0 0 7.5-7.5V7.5a7.5 7.5 0 0 0-7.5-7.5zM333 401.438H94V15h239v386.438z"/><path d="M118.069 393.938H308.93c9.137 0 16.569-7.433 16.569-16.569v-338.3c0-9.136-7.433-16.569-16.569-16.569H118.069c-9.137 0-16.569 7.433-16.569 16.569v338.299c0 9.137 7.433 16.57 16.569 16.57zM111.5 39.069a6.576 6.576 0 0 1 6.569-6.569H308.93a6.577 6.577 0 0 1 6.569 6.569v338.299a6.577 6.577 0 0 1-6.569 6.569H118.069a6.577 6.577 0 0 1-6.569-6.569V39.069z"/><path d="M137.672 373.938h151.656c8.917 0 16.172-7.255 16.172-16.172v-31.453c0-8.917-7.255-16.172-16.172-16.172H137.672c-8.917 0-16.172 7.255-16.172 16.172v31.453c0 8.917 7.255 16.172 16.172 16.172zm-6.172-47.625a6.18 6.18 0 0 1 6.172-6.172h151.656a6.18 6.18 0 0 1 6.172 6.172v31.453a6.18 6.18 0 0 1-6.172 6.172H137.672a6.18 6.18 0 0 1-6.172-6.172v-31.453zM149.531 300.219h127.938c15.456 0 28.031-12.575 28.031-28.031V144.25c0-15.457-12.575-28.031-28.031-28.031H149.531c-15.456 0-28.031 12.575-28.031 28.031v127.938c0 15.456 12.575 28.031 28.031 28.031zM131.5 144.25c0-9.942 8.089-18.031 18.031-18.031h127.938c9.942 0 18.031 8.089 18.031 18.031v127.938c0 9.942-8.089 18.031-18.031 18.031H149.531c-9.942 0-18.031-8.089-18.031-18.031V144.25z"/><path d="M213.5 283.981c41.775 0 75.762-33.987 75.762-75.762s-33.986-75.762-75.762-75.762-75.763 33.987-75.763 75.762 33.988 75.762 75.763 75.762zm0-141.524c36.261 0 65.762 29.501 65.762 65.762s-29.501 65.762-65.762 65.762c-36.262 0-65.763-29.501-65.763-65.762s29.501-65.762 65.763-65.762z"/><path d="M213.5 233.286c13.821 0 25.066-11.245 25.066-25.067s-11.245-25.067-25.066-25.067c-13.822 0-25.067 11.245-25.067 25.067s11.245 25.067 25.067 25.067zm0-40.134c8.308 0 15.066 6.759 15.066 15.067s-6.759 15.067-15.066 15.067c-8.309 0-15.067-6.759-15.067-15.067s6.758-15.067 15.067-15.067z"/><path d="M213.5 266.808c32.306 0 58.589-26.283 58.589-58.589S245.806 149.63 213.5 149.63s-58.589 26.283-58.589 58.589 26.283 58.589 58.589 58.589zm0-107.178c26.792 0 48.589 21.797 48.589 48.589s-21.797 48.589-48.589 48.589-48.589-21.797-48.589-48.589 21.797-48.589 48.589-48.589zM146.503 146.499c1.31 0 2.6-.53 3.53-1.46.93-.93 1.47-2.22 1.47-3.54 0-1.32-.54-2.61-1.47-3.53a5.043 5.043 0 0 0-3.53-1.47c-1.32 0-2.61.54-3.54 1.47a5.03 5.03 0 0 0-1.46 3.53c0 1.32.53 2.61 1.46 3.54.93.93 2.22 1.46 3.54 1.46zM280.503 146.499c1.31 0 2.6-.53 3.53-1.46.93-.94 1.47-2.22 1.47-3.54 0-1.32-.54-2.6-1.47-3.54a5.034 5.034 0 0 0-3.53-1.46c-1.32 0-2.61.53-3.54 1.46-.93.94-1.46 2.23-1.46 3.54 0 1.32.53 2.6 1.46 3.54.93.93 2.22 1.46 3.54 1.46zM280.503 270.499c-1.32 0-2.61.54-3.54 1.47a4.995 4.995 0 0 0 0 7.06c.93.94 2.22 1.47 3.54 1.47 1.31 0 2.6-.53 3.53-1.46.93-.93 1.47-2.22 1.47-3.54 0-1.31-.54-2.6-1.47-3.53a5.04 5.04 0 0 0-3.53-1.47zM146.503 270.499c-1.32 0-2.61.53-3.54 1.46-.93.94-1.46 2.23-1.46 3.54s.53 2.6 1.46 3.54c.93.93 2.22 1.46 3.54 1.46 1.31 0 2.6-.53 3.53-1.46.93-.93 1.47-2.22 1.47-3.54 0-1.32-.54-2.6-1.47-3.54a5.03 5.03 0 0 0-3.53-1.46zM166.5 111.359c20.402 0 37-16.598 37-37s-16.598-37-37-37-37 16.598-37 37 16.598 37 37 37zm0-10c-10.005 0-18.75-5.475-23.415-13.582h46.83c-4.665 8.108-13.41 13.582-23.415 13.582zm-27-27c0-1.158.082-2.298.224-3.418h53.552c.142 1.12.224 2.26.224 3.418s-.082 2.298-.224 3.418h-53.552a27.139 27.139 0 0 1-.224-3.418zm27-27c10.005 0 18.75 5.475 23.415 13.582h-46.83c4.665-8.107 13.41-13.582 23.415-13.582zM155.844 357.706c8.639 0 15.666-7.028 15.666-15.667s-7.027-15.667-15.666-15.667-15.667 7.028-15.667 15.667 7.028 15.667 15.667 15.667zm0-21.333a5.673 5.673 0 0 1 5.666 5.667 5.673 5.673 0 0 1-5.666 5.667 5.673 5.673 0 0 1-5.667-5.667 5.673 5.673 0 0 1 5.667-5.667zM194.281 357.706c8.639 0 15.666-7.028 15.666-15.667s-7.027-15.667-15.666-15.667-15.667 7.028-15.667 15.667 7.029 15.667 15.667 15.667zm0-21.333a5.673 5.673 0 0 1 5.666 5.667 5.673 5.673 0 0 1-5.666 5.667 5.673 5.673 0 0 1-5.667-5.667 5.673 5.673 0 0 1 5.667-5.667zM232.719 357.706c8.639 0 15.667-7.028 15.667-15.667s-7.028-15.667-15.667-15.667-15.667 7.028-15.667 15.667 7.028 15.667 15.667 15.667zm0-21.333a5.673 5.673 0 0 1 5.667 5.667c0 3.125-2.542 5.667-5.667 5.667s-5.667-2.542-5.667-5.667a5.673 5.673 0 0 1 5.667-5.667zM271.156 357.706c8.639 0 15.667-7.028 15.667-15.667s-7.028-15.667-15.667-15.667-15.666 7.028-15.666 15.667 7.028 15.667 15.666 15.667zm0-21.333a5.673 5.673 0 0 1 5.667 5.667 5.673 5.673 0 0 1-5.667 5.667 5.673 5.673 0 0 1-5.666-5.667 5.673 5.673 0 0 1 5.666-5.667z"/></svg>