<?xml version='1.0' encoding='iso-8859-1'?>
<!DOCTYPE svg PUBLIC '-//W3C//DTD SVG 1.1//EN' 'http://www.w3.org/Graphics/SVG/1.1/DTD/svg11.dtd'>
<!-- Uploaded to: SVG Repo, www.svgrepo.com, Generator: SVG Repo Mixer Tools -->
<svg fill="#000000" height="800px" width="800px" version="1.1" xmlns="http://www.w3.org/2000/svg" viewBox="0 0 427 427" xmlns:xlink="http://www.w3.org/1999/xlink" enable-background="new 0 0 427 427">
  <g>
    <path d="M340.5,0h-254C82.357,0,79,3.358,79,7.5v401.438c0,4.142,3.357,7.5,7.5,7.5h17.158c-0.419,0.936-0.658,1.97-0.658,3.063   c0,4.142,3.357,7.5,7.5,7.5h24c4.143,0,7.5-3.358,7.5-7.5c0-1.092-0.239-2.126-0.658-3.063h144.316   c-0.419,0.936-0.658,1.97-0.658,3.063c0,4.142,3.357,7.5,7.5,7.5h24c4.143,0,7.5-3.358,7.5-7.5c0-1.092-0.239-2.126-0.658-3.063   H340.5c4.143,0,7.5-3.358,7.5-7.5V7.5C348,3.358,344.643,0,340.5,0z M333,401.438H94V15h239V401.438z"/>
    <path d="m118.069,393.938h190.861c9.137,0 16.569-7.433 16.569-16.569v-338.3c0-9.136-7.433-16.569-16.569-16.569h-190.861c-9.137,0-16.569,7.433-16.569,16.569v338.299c0,9.137 7.433,16.57 16.569,16.57zm-6.569-354.869c0-3.623 2.947-6.569 6.569-6.569h190.861c3.622,0 6.569,2.947 6.569,6.569v338.299c0,3.622-2.947,6.569-6.569,6.569h-190.861c-3.622,0-6.569-2.947-6.569-6.569v-338.299z"/>
    <path d="m137.672,373.938h151.656c8.917,0 16.172-7.255 16.172-16.172v-31.453c0-8.917-7.255-16.172-16.172-16.172h-151.656c-8.917,0-16.172,7.255-16.172,16.172v31.453c0,8.917 7.255,16.172 16.172,16.172zm-6.172-47.625c0-3.403 2.769-6.172 6.172-6.172h151.656c3.403,0 6.172,2.769 6.172,6.172v31.453c0,3.403-2.769,6.172-6.172,6.172h-151.656c-3.403,0-6.172-2.769-6.172-6.172v-31.453z"/>
    <path d="m149.531,300.219h127.938c15.456,0 28.031-12.575 28.031-28.031v-127.938c0-15.457-12.575-28.031-28.031-28.031h-127.938c-15.456,0-28.031,12.575-28.031,28.031v127.938c0,15.456 12.575,28.031 28.031,28.031zm-18.031-155.969c0-9.942 8.089-18.031 18.031-18.031h127.938c9.942,0 18.031,8.089 18.031,18.031v127.938c0,9.942-8.089,18.031-18.031,18.031h-127.938c-9.942,0-18.031-8.089-18.031-18.031v-127.938z"/>
    <path d="m213.5,283.981c41.775,0 75.762-33.987 75.762-75.762s-33.986-75.762-75.762-75.762-75.763,33.987-75.763,75.762 33.988,75.762 75.763,75.762zm0-141.524c36.261,0 65.762,29.501 65.762,65.762s-29.501,65.762-65.762,65.762c-36.262,0-65.763-29.501-65.763-65.762s29.501-65.762 65.763-65.762z"/>
    <path d="m213.5,233.286c13.821,0 25.066-11.245 25.066-25.067s-11.245-25.067-25.066-25.067c-13.822,0-25.067,11.245-25.067,25.067s11.245,25.067 25.067,25.067zm0-40.134c8.308,0 15.066,6.759 15.066,15.067s-6.759,15.067-15.066,15.067c-8.309,0-15.067-6.759-15.067-15.067s6.758-15.067 15.067-15.067z"/>
    <path d="m213.5,266.808c32.306,0 58.589-26.283 58.589-58.589s-26.283-58.589-58.589-58.589-58.589,26.283-58.589,58.589 26.283,58.589 58.589,58.589zm0-107.178c26.792,0 48.589,21.797 48.589,48.589s-21.797,48.589-48.589,48.589-48.589-21.797-48.589-48.589 21.797-48.589 48.589-48.589z"/>
    <path d="m146.503,146.499c1.31,0 2.6-0.53 3.53-1.46 0.93-0.93 1.47-2.22 1.47-3.54 0-1.32-0.54-2.61-1.47-3.53-0.931-0.93-2.221-1.47-3.53-1.47-1.32,0-2.61,0.54-3.54,1.47-0.93,0.93-1.46,2.22-1.46,3.53 0,1.32 0.53,2.61 1.46,3.54 0.93,0.93 2.22,1.46 3.54,1.46z"/>
    <path d="m280.503,146.499c1.31,0 2.6-0.53 3.53-1.46 0.93-0.94 1.47-2.22 1.47-3.54 0-1.32-0.54-2.6-1.47-3.54-0.931-0.93-2.221-1.46-3.53-1.46-1.32,0-2.61,0.53-3.54,1.46-0.93,0.94-1.46,2.23-1.46,3.54 0,1.32 0.53,2.6 1.46,3.54 0.93,0.93 2.22,1.46 3.54,1.46z"/>
    <path d="m280.503,270.499c-1.32,0-2.61,0.54-3.54,1.47-0.93,0.93-1.46,2.22-1.46,3.53 0,1.32 0.53,2.61 1.46,3.53 0.93,0.94 2.22,1.47 3.54,1.47 1.31,0 2.6-0.53 3.53-1.46 0.93-0.93 1.47-2.22 1.47-3.54 0-1.31-0.54-2.6-1.47-3.53-0.93-0.93-2.22-1.47-3.53-1.47z"/>
    <path d="m146.503,270.499c-1.32,0-2.61,0.53-3.54,1.46-0.93,0.94-1.46,2.23-1.46,3.54s0.53,2.6 1.46,3.54c0.93,0.93 2.22,1.46 3.54,1.46 1.31,0 2.6-0.53 3.53-1.46 0.93-0.93 1.47-2.22 1.47-3.54 0-1.32-0.54-2.6-1.47-3.54-0.93-0.93-2.22-1.46-3.53-1.46z"/>
    <path d="m166.5,111.359c20.402,0 37-16.598 37-37s-16.598-37-37-37-37,16.598-37,37 16.598,37 37,37zm0-10c-10.005,0-18.75-5.475-23.415-13.582h46.83c-4.665,8.108-13.41,13.582-23.415,13.582zm-27-27c0-1.158 0.082-2.298 0.224-3.418h53.552c0.142,1.12 0.224,2.26 0.224,3.418s-0.082,2.298-0.224,3.418h-53.552c-0.142-1.12-0.224-2.259-0.224-3.418zm27-27c10.005,0 18.75,5.475 23.415,13.582h-46.83c4.665-8.107 13.41-13.582 23.415-13.582z"/>
    <path d="m155.844,357.706c8.639,0 15.666-7.028 15.666-15.667s-7.027-15.667-15.666-15.667-15.667,7.028-15.667,15.667 7.028,15.667 15.667,15.667zm0-21.333c3.124,0 5.666,2.542 5.666,5.667 0,3.125-2.542,5.667-5.666,5.667-3.125,0-5.667-2.542-5.667-5.667 0-3.125 2.542-5.667 5.667-5.667z"/>
    <path d="m194.281,357.706c8.639,0 15.666-7.028 15.666-15.667s-7.027-15.667-15.666-15.667-15.667,7.028-15.667,15.667 7.029,15.667 15.667,15.667zm0-21.333c3.124,0 5.666,2.542 5.666,5.667 0,3.125-2.542,5.667-5.666,5.667-3.125,0-5.667-2.542-5.667-5.667 0-3.125 2.542-5.667 5.667-5.667z"/>
    <path d="m232.719,357.706c8.639,0 15.667-7.028 15.667-15.667s-7.028-15.667-15.667-15.667-15.667,7.028-15.667,15.667 7.028,15.667 15.667,15.667zm0-21.333c3.125,0 5.667,2.542 5.667,5.667 0,3.125-2.542,5.667-5.667,5.667s-5.667-2.542-5.667-5.667c0-3.125 2.542-5.667 5.667-5.667z"/>
    <path d="m271.156,357.706c8.639,0 15.667-7.028 15.667-15.667s-7.028-15.667-15.667-15.667-15.666,7.028-15.666,15.667 7.028,15.667 15.666,15.667zm0-21.333c3.125,0 5.667,2.542 5.667,5.667 0,3.125-2.542,5.667-5.667,5.667-3.124,0-5.666-2.542-5.666-5.667 0-3.125 2.542-5.667 5.666-5.667z"/>
  </g>
</svg>