<svg xmlns="http://www.w3.org/2000/svg" xml:space="preserve" id="Layer_1" x="0" y="0" style="enable-background:new 0 0 1000 1000" version="1.1" viewBox="0 0 1000 1000"><style>.st0{fill:#f9b978}.st1{fill:#1f3250}.st2,.st3{fill:#d6925b;stroke:#d6925b;stroke-width:6;stroke-miterlimit:10}.st3{fill:none;stroke:#1f3250;stroke-linecap:round;stroke-linejoin:round}.st4{fill:#0c776d}.st5{fill:#1f3250;stroke:#1f3250;stroke-width:6;stroke-linecap:round;stroke-linejoin:round;stroke-miterlimit:10}.st7{fill:#0f8e85}.st8{fill:#beedc4}.st14,.st18,.st21,.st9{fill:none;stroke:#1f3250;stroke-width:4;stroke-linecap:round;stroke-linejoin:round;stroke-miterlimit:10}.st14,.st18,.st21{stroke:#0c776d;stroke-width:8}.st18,.st21{stroke:#1f3250}.st21{stroke-width:3}.st23{opacity:.43;fill:#fff}.st24,.st27{fill:none;stroke-width:6;stroke-linecap:round;stroke-linejoin:round;stroke-miterlimit:10}.st24{opacity:.36;stroke:#1f3250}.st27{stroke:#6dd2b9}</style><path id="XMLID_12_" d="M0 0h1000v1000H0z" class="st0"/><path d="M63.2 959.2c0 2.5-1.2 3.7-2.6 3.7-1.1 0-1.9-.5-2.1-1.4-.4.5-1 .8-1.8.8-1.5 0-2.6-1.2-2.6-2.8 0-1.6 1.1-2.8 2.6-2.8.7 0 1.2.3 1.6.7v-.5h1.6v3.9c0 .8.3 1.4 1 1.4.9 0 1.7-.9 1.7-3 0-3-2.3-5.3-5.4-5.3-3.1 0-5.6 2.4-5.6 5.7 0 3.3 2.5 5.7 5.9 5.7 1.1 0 2.1-.2 2.9-.4v.6c-.8.3-1.7.4-2.9.4-3.7 0-6.5-2.6-6.5-6.2 0-3.4 2.7-6.2 6.2-6.2 3.9-.2 6 2.9 6 5.7zm-4.9.3c0-.8-.6-1.4-1.3-1.4-.8 0-1.3.5-1.3 1.4 0 .8.6 1.3 1.3 1.3.8.1 1.3-.5 1.3-1.3zM69.4 955.1v2c-1.2-.1-2.6.5-2.6 2.4v4.3h-1.9v-8.6h1.9v1.4c.5-1.1 1.5-1.5 2.6-1.5zM74.6 962.3c1 0 1.8-.5 2.2-1.1l1.5.9c-.8 1.2-2.1 1.9-3.8 1.9-2.8 0-4.7-1.9-4.7-4.5 0-2.5 1.8-4.5 4.5-4.5 2.6 0 4.3 2.1 4.3 4.5 0 .3 0 .5-.1.8h-6.8c.4 1.3 1.5 2 2.9 2zm2.3-3.5c-.3-1.5-1.3-2.1-2.5-2.1-1.4 0-2.3.8-2.6 2.1h5.1zM88.9 955.2v8.6H87v-1.2c-.7.9-1.7 1.5-3 1.5-2.3 0-4.3-2-4.3-4.5 0-2.6 1.9-4.5 4.3-4.5 1.3 0 2.3.5 3 1.4v-1.2h1.9zm-1.8 4.3c0-1.6-1.2-2.7-2.7-2.7-1.5 0-2.7 1.1-2.7 2.7s1.2 2.7 2.7 2.7c1.5.1 2.7-1.1 2.7-2.7zM91.1 951.3H93v12.5h-1.9v-12.5zM102.9 955.2l-3.3 8.6h-2.1l-3.3-8.6h2l2.4 6.5 2.4-6.5h1.9zM104.2 955.2h1.9v8.9c0 2.4-1.2 3.5-3.5 3.3v-1.8c1.1.1 1.7-.3 1.7-1.5v-8.9zm-.2-2.4c0-.7.5-1.2 1.2-1.2s1.2.5 1.2 1.2c0 .6-.5 1.2-1.2 1.2s-1.2-.6-1.2-1.2zM116 955.2l-3.3 8.8c-.8 2.2-2.2 3.3-4.2 3.2v-1.7c1.2.1 1.9-.5 2.3-1.7l.1-.2-3.6-8.4h2l2.6 6.2 2.2-6.2h1.9zM211.9 938.7c0 2.1-1.5 3.8-3.6 3.8h-3v-7.6h3c2.1 0 3.6 1.7 3.6 3.8zm-1 0c0-1.6-1.1-2.9-2.6-2.9h-2v5.7h2c1.5.1 2.6-1.2 2.6-2.8zM219.5 940.8h-3.4l-.6 1.7h-1.1l2.8-7.6h1.1l2.8 7.6H220l-.5-1.7zm-.3-.9-1.4-3.8-1.4 3.8h2.8zM226.4 939.4v3.1h-1v-3.1l-2.7-4.5h1.1l2.1 3.6 2.1-3.6h1.1l-2.7 4.5zM239.5 934.9v7.6h-1V936l-1.6.5-.3-.9 2-.7h.9zM248.2 940.1c0 1.5-1.1 2.6-2.6 2.6s-2.6-1.1-2.6-2.6c0-.6.2-1.1.5-1.5l2.5-3.7h1.2l-1.8 2.7h.4c1.3-.1 2.4 1 2.4 2.5zm-1 0c0-1-.7-1.6-1.6-1.6-1 0-1.6.6-1.6 1.6s.7 1.6 1.6 1.6c1 0 1.6-.7 1.6-1.6zM58.9 938.7c0 2.1-1.5 3.8-3.6 3.8h-3v-7.6h3c2.1 0 3.6 1.7 3.6 3.8zm-1 0c0-1.6-1.1-2.9-2.6-2.9h-2v5.7h2c1.5.1 2.6-1.2 2.6-2.8zM67 941.6v1h-4.6V935h4.5v1h-3.5v2.3h3.2v.9h-3.2v2.4H67zM70 940.8l.9-.5c.3.8.9 1.4 2 1.4s1.6-.5 1.6-1.2c0-.8-.7-1-1.8-1.4-1.2-.4-2.4-.8-2.4-2.2 0-1.4 1.1-2.2 2.4-2.2 1.3 0 2.2.7 2.6 1.7l-.8.5c-.3-.7-.8-1.2-1.7-1.2-.8 0-1.4.4-1.4 1.1 0 .7.5 1 1.6 1.3 1.3.4 2.6.8 2.6 2.3 0 1.3-1.1 2.2-2.6 2.2-1.5.1-2.6-.7-3-1.8zM80 934.9v7.6h-1v-7.6h1zM91.3 939.2c0 1.9-1.4 3.5-3.7 3.5-2.4 0-4-1.8-4-4s1.7-4 4-4c1.4 0 2.7.8 3.3 1.8l-.9.5c-.4-.8-1.4-1.4-2.4-1.4-1.8 0-3 1.3-3 3s1.2 3 3 3c1.6 0 2.5-.9 2.7-2h-2.8v-.9h3.8v.5zM100.6 934.9v7.6h-.8l-3.9-5.7v5.7h-1v-7.6h.8l3.9 5.7v-5.7h1zM109.1 941.6v1h-4.6V935h4.5v1h-3.5v2.3h3.2v.9h-3.2v2.4h3.6zM119.2 938.7c0 2.1-1.5 3.8-3.6 3.8h-3v-7.6h3c2 0 3.6 1.7 3.6 3.8zm-1 0c0-1.6-1.1-2.9-2.6-2.9h-2v5.7h2c1.5.1 2.6-1.2 2.6-2.8zM133.2 940.4c0 1.2-1 2.2-2.2 2.2h-3.3V935h3c1.2 0 2.1.9 2.1 2.1 0 .7-.3 1.2-.8 1.6.7.2 1.2.8 1.2 1.7zm-4.5-4.6v2.3h2c.6 0 1.1-.5 1.1-1.2 0-.6-.5-1.2-1.1-1.2h-2zm3.5 4.5c0-.7-.5-1.2-1.2-1.2h-2.3v2.5h2.3c.7 0 1.2-.6 1.2-1.3zM139.4 939.4v3.1h-1v-3.1l-2.7-4.5h1.1l2.1 3.6 2.1-3.6h1.1l-2.7 4.5zM209.9 959.8h-2.4v4.5h-2v-12.4h5c2.2 0 4 1.8 4 4 0 1.6-1 3-2.5 3.6l2.8 4.8h-2.2l-2.7-4.5zm-2.4-1.8h2.9c1.1 0 1.9-.9 1.9-2.1 0-1.2-.9-2.1-1.9-2.1h-2.9v4.2zM220.1 962.8c1.1 0 1.9-.5 2.3-1.1l1.6.9c-.8 1.2-2.1 1.9-3.9 1.9-2.9 0-4.8-2-4.8-4.7 0-2.6 1.9-4.7 4.7-4.7 2.6 0 4.4 2.1 4.4 4.7 0 .3 0 .5-.1.8h-7c.2 1.5 1.3 2.2 2.8 2.2zm2.3-3.7c-.3-1.5-1.4-2.2-2.5-2.2-1.4 0-2.4.8-2.7 2.2h5.2zM228.5 957.3v4.2c0 1.1.7 1.1 2.2 1v1.7c-2.9.4-4.1-.5-4.1-2.8v-4.2H225v-1.8h1.6v-1.9l1.9-.6v2.5h2.2v1.8h-2.2zM237.1 955.3v2.1c-1.3-.1-2.7.5-2.7 2.5v4.5h-1.9v-8.9h1.9v1.5c.6-1.3 1.6-1.7 2.7-1.7zM237.7 959.9c0-2.6 2.1-4.7 4.7-4.7s4.7 2 4.7 4.7c0 2.6-2.1 4.7-4.7 4.7-2.6-.1-4.7-2.1-4.7-4.7zm7.4 0c0-1.6-1.2-2.8-2.8-2.8s-2.8 1.2-2.8 2.8c0 1.6 1.2 2.8 2.8 2.8s2.8-1.2 2.8-2.8zM252.7 958.1c0-3.6 2.7-6.4 6.5-6.4 2.3 0 4.3 1.2 5.3 3l-1.8 1c-.7-1.2-2-2-3.6-2-2.7 0-4.4 1.9-4.4 4.4s1.8 4.4 4.4 4.4c1.6 0 2.9-.8 3.6-2l1.8 1c-1 1.8-3 3-5.3 3-3.8 0-6.5-2.8-6.5-6.4zM275 955.4v8.9h-2V963c-.7.9-1.7 1.5-3.1 1.5-2.4 0-4.4-2-4.4-4.7 0-2.6 2-4.7 4.4-4.7 1.4 0 2.4.6 3.1 1.5v-1.3h2zm-2 4.5c0-1.6-1.2-2.8-2.8-2.8-1.6 0-2.8 1.2-2.8 2.8 0 1.6 1.2 2.8 2.8 2.8 1.6 0 2.8-1.2 2.8-2.8zM283.6 961.8c0 1.8-1.5 2.7-3.5 2.7-1.8 0-3-.8-3.6-2.1l1.6-1c.3.8 1 1.3 2 1.3.8 0 1.5-.3 1.5-1 0-1.6-4.8-.7-4.8-3.9 0-1.7 1.4-2.7 3.2-2.7 1.5 0 2.7.7 3.3 1.8l-1.6.9c-.3-.7-.9-1-1.7-1-.7 0-1.3.3-1.3.9.1 1.8 4.9.8 4.9 4.1zM291.2 961.8c0 1.8-1.5 2.7-3.5 2.7-1.8 0-3-.8-3.6-2.1l1.6-1c.3.8 1 1.3 2 1.3.8 0 1.5-.3 1.5-1 0-1.6-4.8-.7-4.8-3.9 0-1.7 1.4-2.7 3.2-2.7 1.5 0 2.7.7 3.3 1.8l-1.6.9c-.3-.7-.9-1-1.7-1-.7 0-1.3.3-1.3.9.2 1.8 4.9.8 4.9 4.1zM297 962.8c1.1 0 1.9-.5 2.3-1.1l1.6.9c-.8 1.2-2.1 1.9-3.9 1.9-2.9 0-4.8-2-4.8-4.7 0-2.6 1.9-4.7 4.7-4.7 2.6 0 4.4 2.1 4.4 4.7 0 .3 0 .5-.1.8h-7c.3 1.5 1.4 2.2 2.8 2.2zm2.4-3.7c-.3-1.5-1.4-2.2-2.5-2.2-1.4 0-2.4.8-2.7 2.2h5.2zM305.5 957.3v4.2c0 1.1.7 1.1 2.2 1v1.7c-2.9.4-4.1-.5-4.1-2.8v-4.2H302v-1.8h1.6v-1.9l1.9-.6v2.5h2.2v1.8h-2.2zM311.7 957.3v4.2c0 1.1.7 1.1 2.2 1v1.7c-2.9.4-4.1-.5-4.1-2.8v-4.2h-1.6v-1.8h1.6v-1.9l1.9-.6v2.5h2.2v1.8h-2.2zM319.6 962.8c1.1 0 1.9-.5 2.3-1.1l1.6.9c-.8 1.2-2.1 1.9-3.9 1.9-2.9 0-4.8-2-4.8-4.7 0-2.6 1.9-4.7 4.7-4.7 2.6 0 4.4 2.1 4.4 4.7 0 .3 0 .5-.1.8h-7c.3 1.5 1.4 2.2 2.8 2.2zm2.4-3.7c-.3-1.5-1.4-2.2-2.5-2.2-1.4 0-2.4.8-2.7 2.2h5.2zM841.3 942.5h-1v-7.6h1.1l2.4 4 2.4-4h1.1v7.6h-1v-6l-2.5 4.2h-.1l-2.5-4.1v5.9zm17.5-3.8c0 2.2-1.7 4-4 4-2.2 0-3.9-1.8-3.9-4s1.7-4 3.9-4c2.3 0 4 1.8 4 4zm-1 0c0-1.7-1.3-3-2.9-3-1.7 0-2.9 1.3-2.9 3s1.3 3 2.9 3c1.7 0 2.9-1.3 2.9-3zm8.4.8 1.8 3.1h-1.1l-1.7-2.9h-1.8v2.9h-1V935h3c1.3 0 2.4 1.1 2.4 2.4 0 .8-.7 1.7-1.6 2.1zm-.8-.8c.8 0 1.4-.6 1.4-1.4 0-.8-.6-1.4-1.4-1.4h-2v2.8h2zm10.5 2.9h-3.5v-2.4h3.2v-.9h-3.2V936h3.5v-1h-4.5v7.6h4.6v-1zm-31.7 20.6-2.5-6.7h-2.1l3.5 8.9h2.2l3.5-8.9h-2.1l-2.5 6.7zm5.8 2.1h1.9v-8.9H850v8.9zm1-12.6c-.7 0-1.2.5-1.2 1.2s.5 1.2 1.2 1.2 1.2-.6 1.2-1.2c0-.7-.6-1.2-1.2-1.2zm4.2 0c-.7 0-1.2.5-1.2 1.2s.5 1.2 1.2 1.2 1.2-.6 1.2-1.2c.1-.7-.5-1.2-1.2-1.2zm-.9 13c0 1.2-.5 1.7-1.7 1.6v1.8c2.4.2 3.6-1 3.6-3.4v-9.2h-1.9v9.2zm11.1-9.3h1.9v8.9h-1.9V963c-.7.9-1.7 1.5-3.1 1.5-2.4 0-4.4-2-4.4-4.7 0-2.6 2-4.7 4.4-4.7 1.4 0 2.4.6 3.1 1.5v-1.2zm0 4.5c0-1.6-1.2-2.8-2.8-2.8-1.6 0-2.8 1.2-2.8 2.8 0 1.6 1.2 2.8 2.8 2.8 1.6 0 2.8-1.2 2.8-2.8zm7.9 2-2.6-6.4h-2.1l3.8 8.7-.1.2c-.4 1.2-1.1 1.8-2.4 1.7v1.8c2 .1 3.5-1 4.3-3.3l3.4-9.1h-2l-2.3 6.4zm9 .3-2.5-6.7h-2.1l3.5 8.9h2.2l3.5-8.9h-2.1l-2.5 6.7zm14.1-2.3c0 .3 0 .5-.1.8h-7c.3 1.4 1.4 2.1 2.8 2.1 1.1 0 1.9-.5 2.3-1.1l1.6.9c-.8 1.2-2.1 1.9-3.9 1.9-2.9 0-4.8-2-4.8-4.7 0-2.6 1.9-4.7 4.7-4.7 2.5.1 4.4 2.2 4.4 4.8zm-2-.8c-.3-1.5-1.4-2.2-2.5-2.2-1.4 0-2.4.8-2.7 2.2h5.2zm5.5-2.2v-1.5H898v8.9h1.9v-4.5c0-2 1.5-2.6 2.7-2.5v-2.1c-1 .1-2.1.5-2.7 1.7zm13.9-1.7c-1.2 0-2.1.5-2.7 1.4-.5-.9-1.4-1.4-2.5-1.4s-2 .4-2.5 1.3v-1.1h-1.9v8.9h1.9v-5c0-1.6.9-2.3 2-2.3 1 0 1.7.7 1.7 1.9v5.4h1.9v-5c0-1.6.8-2.3 1.9-2.3 1 0 1.7.7 1.7 1.9v5.4h1.9v-5.5c-.1-2.2-1.4-3.6-3.4-3.6zm12.4.2h1.9v8.9h-1.9V963c-.7.9-1.7 1.5-3.1 1.5-2.4 0-4.4-2-4.4-4.7 0-2.6 2-4.7 4.4-4.7 1.4 0 2.4.6 3.1 1.5v-1.2zm0 4.5c0-1.6-1.2-2.8-2.8-2.8-1.6 0-2.8 1.2-2.8 2.8 0 1.6 1.2 2.8 2.8 2.8 1.6 0 2.8-1.2 2.8-2.8zm5.3 2c-.7 0-1.3.6-1.3 1.3 0 .7.6 1.3 1.3 1.3.7 0 1.3-.6 1.3-1.3 0-.8-.6-1.3-1.3-1.3zm6.8.7c-1.6 0-2.7-1.2-2.7-2.8 0-1.6 1.2-2.8 2.7-2.8 1.1 0 1.9.5 2.3 1.4l1.6-1c-.7-1.4-2.2-2.3-3.9-2.3-2.7 0-4.7 2-4.7 4.7 0 2.6 2 4.7 4.7 4.7 1.7 0 3.2-.9 4-2.3l-1.6-.9c-.5.8-1.4 1.3-2.4 1.3zm14.1-2.7c0 2.6-2.1 4.7-4.7 4.7s-4.7-2-4.7-4.7c0-2.6 2.1-4.7 4.7-4.7s4.7 2 4.7 4.7zm-1.9 0c0-1.6-1.2-2.8-2.8-2.8s-2.8 1.2-2.8 2.8c0 1.6 1.2 2.8 2.8 2.8s2.8-1.2 2.8-2.8z" class="st1"/><path id="XMLID_170_" d="m233.8 654.2-7.1-6.7c-1.8-1.7-2.9-4.3-2.9-7.1v-93.8c0-3.3 1.5-6.3 3.8-7.8l6.2-4.2v119.6z" class="st2"/><path id="XMLID_168_" d="m233.8 641.2-7.1-6.7c-1.8-1.7-2.9-4.3-2.9-7.1v-93.8c0-3.3 1.5-6.3 3.8-7.8l6.2-4.2v119.6z" class="st3"/><path id="XMLID_148_" d="M659.9 700.2H339.6c-5.1 0-8.9-4.7-7.8-9.7l17.3-82c.8-3.7 4-6.3 7.8-6.3h285.7c3.8 0 7 2.6 7.8 6.3l17.3 82c1.1 5-2.7 9.7-7.8 9.7z" class="st2"/><path id="XMLID_147_" d="M753.8 687.8h-508c-6.6 0-12-5.4-12-12v-330c0-6.6 5.4-12 12-12h508c6.6 0 12 5.4 12 12v330c0 6.6-5.4 12-12 12z" class="st2"/><g id="XMLID_175_"><path id="XMLID_172_" d="m765.8 648 7.1-6.7c1.8-1.7 2.9-4.3 2.9-7.1v-93.8c0-3.3-1.5-6.3-3.8-7.8l-6.2-4.2V648z" class="st2"/><path id="XMLID_167_" d="m765.8 635 7.1-6.7c1.8-1.7 2.9-4.3 2.9-7.1v-93.8c0-3.3-1.5-6.3-3.8-7.8l-6.2-4.2V635z" class="st3"/><path id="XMLID_163_" d="m765.8 628 7.1-6.7c1.8-1.7 2.9-4.3 2.9-7.1v-93.8c0-3.3-1.5-6.3-3.8-7.8l-6.2-4.2V628z" class="st4"/><path id="XMLID_150_" d="m765.8 628 7.1-6.7c1.8-1.7 2.9-4.3 2.9-7.1v-93.8c0-3.3-1.5-6.3-3.8-7.8l-6.2-4.2V628z" class="st3"/></g><path id="XMLID_49_" d="M753.8 662.8h-508c-6.6 0-12-5.4-12-12v-330c0-6.6 5.4-12 12-12h508c6.6 0 12 5.4 12 12v330c0 6.6-5.4 12-12 12z" class="st5"/><path id="XMLID_47_" d="M659.9 676.2H339.6c-5.1 0-8.9-4.7-7.8-9.7l17.3-82c.8-3.7 4-6.3 7.8-6.3h285.7c3.8 0 7 2.6 7.8 6.3l17.3 82c1.1 5-2.7 9.7-7.8 9.7z" class="st5"/><path id="XMLID_2_" d="M753.8 653.8h-508c-6.6 0-12-5.4-12-12v-330c0-6.6 5.4-12 12-12h508c6.6 0 12 5.4 12 12v330c0 6.6-5.4 12-12 12z" style="fill:none;stroke:#5c290c;stroke-width:6;stroke-linecap:round;stroke-linejoin:round;stroke-miterlimit:10"/><path id="XMLID_14_" d="M753.8 653.8h-508c-6.6 0-12-5.4-12-12v-330c0-6.6 5.4-12 12-12h508c6.6 0 12 5.4 12 12v330c0 6.6-5.4 12-12 12z" class="st7"/><g id="XMLID_104_"><circle id="XMLID_103_" cx="265.4" cy="328.5" r="15.2" class="st4"/><circle id="XMLID_149_" cx="265.4" cy="328.5" r="10.5" class="st8"/><circle id="XMLID_10_" cx="265.4" cy="328.5" r="10.5" class="st9"/><path id="XMLID_34_" d="m261.6 324.7 7.6 7.6" class="st9"/><path id="XMLID_27_" d="m269.2 324.7-7.6 7.6" class="st9"/></g><g id="XMLID_106_"><circle id="XMLID_112_" cx="734.1" cy="328.5" r="15.2" class="st4"/><circle id="XMLID_151_" cx="734.1" cy="328.5" r="10.5" class="st8"/><circle id="XMLID_110_" cx="734.1" cy="328.5" r="10.5" class="st9"/><path id="XMLID_108_" d="m730.3 324.7 7.6 7.6" class="st9"/><path id="XMLID_107_" d="m737.9 324.7-7.6 7.6" class="st9"/></g><path id="XMLID_23_" d="m677.4 632.2-12.6-60c-1.8-8.5-9.4-15-18.1-15H352.8c-8.7 0-16.3 6.5-18.1 15l-12.6 60h355.3z" class="st4"/><path id="XMLID_19_" d="M711.9 565.3h-424c-3.3 0-6-2.7-6-6v-182c0-11 9-20 20-20h396c11 0 20 9 20 20v182c0 3.3-2.7 6-6 6z" style="fill:#0c776d;stroke:#0c776d;stroke-width:6;stroke-linecap:round;stroke-linejoin:round;stroke-miterlimit:10"/><path id="XMLID_18_" d="M753.8 653.8h-508c-6.6 0-12-5.4-12-12v-14.6h532v14.6c0 6.6-5.4 12-12 12z" class="st4"/><path id="XMLID_17_" d="M765.8 315.8h-532v-4c0-6.6 5.4-12 12-12h508c6.6 0 12 5.4 12 12v4z" style="opacity:.86;fill:#36b2a0"/><path id="XMLID_13_" d="M753.8 653.8h-508c-6.6 0-12-5.4-12-12v-330c0-6.6 5.4-12 12-12h508c6.6 0 12 5.4 12 12v330c0 6.6-5.4 12-12 12z" class="st3"/><path id="XMLID_15_" d="M711.9 555.3h-424c-3.3 0-6-2.7-6-6v-182c0-11 9-20 20-20h396c11 0 20 9 20 20v182c0 3.3-2.7 6-6 6z" style="fill:#7dd9d6"/><path id="XMLID_37_" d="M711.9 555.3h-424c-3.3 0-6-2.7-6-6V407.9h436v141.4c0 3.3-2.7 6-6 6z" style="opacity:.64;fill:#32b94d"/><path id="XMLID_3_" d="M711.9 555.3h-424c-3.3 0-6-2.7-6-6v-182c0-11 9-20 20-20h396c11 0 20 9 20 20v182c0 3.3-2.7 6-6 6z" class="st3"/><path id="XMLID_16_" d="M659.9 667.2H339.6c-5.1 0-8.9-4.7-7.8-9.7l17.3-82c.8-3.7 4-6.3 7.8-6.3h285.7c3.8 0 7 2.6 7.8 6.3l17.3 82c1.1 5-2.7 9.7-7.8 9.7z" class="st7"/><path id="XMLID_59_" d="M347 589.2v69.4" class="st14"/><path id="XMLID_60_" d="M652 579.7v82.2" class="st14"/><g id="XMLID_22_"><path id="XMLID_4_" d="M365 569.2v92.7" class="st14"/><path d="M381.9 569.2v92.7M398.8 569.2v92.7M415.6 569.2v92.7M432.5 569.2v92.7M449.4 569.2v92.7M466.2 569.2v92.7M483.1 569.2v92.7M500 569.2v92.7M516.9 569.2v92.7M533.8 569.2v92.7M550.6 569.2v92.7M567.5 569.2v92.7M584.4 569.2v92.7M601.2 569.2v92.7M618.1 569.2v92.7" class="st14"/><path id="XMLID_1_" d="M635 569.2v92.7" class="st14"/></g><path id="XMLID_26_" d="M664.8 643.6c-1.3 1-3 1.7-4.9 1.7H339.6c-1.9 0-3.5-.6-4.9-1.7l-3 14c-1 5 2.7 9.7 7.8 9.7h320.3c5.1 0 8.9-4.7 7.8-9.7l-2.8-14z" class="st4"/><path id="XMLID_9_" d="M659.9 667.2H339.6c-5.1 0-8.9-4.7-7.8-9.7l17.3-82c.8-3.7 4-6.3 7.8-6.3h285.7c3.8 0 7 2.6 7.8 6.3l17.3 82c1.1 5-2.7 9.7-7.8 9.7z" class="st3"/><path id="XMLID_11_" d="M637.9 491.3h-276c-6.6 0-12-5.4-12-12v-56c0-6.6 5.4-12 12-12h276c6.6 0 12 5.4 12 12v56c0 6.6-5.4 12-12 12z" class="st7"/><path id="XMLID_161_" d="M637.9 411.3h-276c-6.6 0-12 5.4-12 12v15c0-6.6 5.4-12 12-12h276c6.6 0 12 5.4 12 12v-15c0-6.6-5.4-12-12-12z" class="st4"/><path id="XMLID_20_" d="M637.9 491.3h-276c-6.6 0-12-5.4-12-12v-56c0-6.6 5.4-12 12-12h276c6.6 0 12 5.4 12 12v56c0 6.6-5.4 12-12 12z" class="st3"/><circle id="XMLID_61_" cx="391.3" cy="631.9" r="18.2" class="st4"/><circle id="XMLID_58_" cx="391.3" cy="631.9" r="11.3" class="st3"/><circle id="XMLID_68_" cx="608.3" cy="631.9" r="18.2" class="st4"/><circle id="XMLID_67_" cx="608.3" cy="631.9" r="11.3" class="st3"/><circle id="XMLID_64_" cx="450.9" cy="601.3" r="14.8" class="st4"/><circle id="XMLID_63_" cx="450.9" cy="601.3" r="9.2" class="st3"/><circle id="XMLID_66_" cx="547.9" cy="601.3" r="14.8" class="st4"/><circle id="XMLID_65_" cx="547.9" cy="601.3" r="9.2" class="st3"/><g id="XMLID_76_"><circle id="XMLID_62_" cx="403.9" cy="451.3" r="28.7" class="st1"/><defs><filter id="Adobe_OpacityMaskFilter" width="69.8" height="69.8" x="369" y="416.4" filterUnits="userSpaceOnUse"><feColorMatrix color-interpolation-filters="sRGB" result="source" values="-1 0 0 0 1 0 -1 0 0 1 0 0 -1 0 1 0 0 0 1 0"/></filter></defs><mask id="XMLID_6_" width="69.8" height="69.8" x="369" y="416.4" maskUnits="userSpaceOnUse"><g id="XMLID_72_" style="filter:url(#Adobe_OpacityMaskFilter)"><circle id="XMLID_74_" cx="403.9" cy="451.3" r="26.5"/></g></mask><g id="XMLID_73_" style="mask:url(#XMLID_6_)"><path id="XMLID_70_" d="M403.9 420.4v61.8" class="st14"/><path id="XMLID_69_" d="M434.8 451.3H373" class="st14"/><path id="XMLID_40_" d="m425.7 429.5-43.6 43.7" class="st14"/><path id="XMLID_38_" d="m425.7 473.2-43.6-43.7" class="st14"/></g><circle id="XMLID_71_" cx="403.9" cy="451.3" r="17.4" class="st4"/><circle id="XMLID_75_" cx="403.9" cy="451.3" r="28.7" class="st18"/></g><g id="XMLID_88_"><circle id="XMLID_102_" cx="595.6" cy="451.3" r="28.7" class="st1"/><defs><filter id="Adobe_OpacityMaskFilter_1_" width="69.8" height="69.8" x="560.7" y="416.4" filterUnits="userSpaceOnUse"><feColorMatrix color-interpolation-filters="sRGB" result="source" values="-1 0 0 0 1 0 -1 0 0 1 0 0 -1 0 1 0 0 0 1 0"/></filter></defs><mask id="XMLID_7_" width="69.8" height="69.8" x="560.7" y="416.4" maskUnits="userSpaceOnUse"><g id="XMLID_95_" style="filter:url(#Adobe_OpacityMaskFilter_1_)"><circle id="XMLID_97_" cx="595.6" cy="451.3" r="26.5"/></g></mask><g id="XMLID_93_" style="mask:url(#XMLID_7_)"><path id="XMLID_101_" d="M595.6 420.4v61.8" class="st14"/><path id="XMLID_100_" d="M626.5 451.3h-61.8" class="st14"/><path id="XMLID_99_" d="m617.4 429.5-43.6 43.7" class="st14"/><path id="XMLID_98_" d="m617.4 473.2-43.6-43.7" class="st14"/></g><circle id="XMLID_90_" cx="595.6" cy="451.3" r="17.4" class="st4"/><circle id="XMLID_89_" cx="595.6" cy="451.3" r="28.7" class="st18"/></g><path id="XMLID_78_" d="M546.9 473.1h-94.2c-3.3 0-6-2.7-6-6v-36c0-3.3 2.7-6 6-6h94.2c3.3 0 6 2.7 6 6v36c0 3.3-2.7 6-6 6z" class="st0"/><g id="XMLID_123_"><circle id="XMLID_128_" cx="265.4" cy="620.6" r="15.2" class="st4"/><circle id="XMLID_127_" cx="265.4" cy="620.6" r="10.5" class="st9"/><path id="XMLID_126_" d="m261.6 616.8 7.6 7.6" class="st9"/><path id="XMLID_125_" d="m269.2 616.8-7.6 7.6" class="st9"/></g><g id="XMLID_114_"><circle id="XMLID_119_" cx="734.1" cy="620.6" r="15.2" class="st4"/><circle id="XMLID_118_" cx="734.1" cy="620.6" r="10.5" class="st9"/><path id="XMLID_117_" d="m730.3 616.8 7.6 7.6" class="st9"/><path id="XMLID_116_" d="m737.9 616.8-7.6 7.6" class="st9"/></g><g id="XMLID_131_"><circle id="XMLID_135_" cx="499.8" cy="594.7" r="10.2" class="st4"/><circle id="XMLID_134_" cx="499.8" cy="594.7" r="7.1" class="st21"/><path id="XMLID_133_" d="M496.6 594.7h6.3" class="st21"/><path id="XMLID_132_" d="M499.8 591.6v6.2" class="st21"/></g><path id="XMLID_43_" d="M446.6 431.1v36c0 3.3 2.7 6 6 6h36.1c1.8-7 2.7-14.3 2.7-21.8 0-9.1-1.4-17.9-4-26.2h-34.9c-3.2 0-5.9 2.7-5.9 6z" class="st1"/><path id="XMLID_44_" d="M540.1 473.1h6.7c3.3 0 6-2.7 6-6v-36c0-3.3-2.7-6-6-6H542c-3.9 7.9-6.1 16.8-6.1 26.2.1 7.7 1.6 15.1 4.2 21.8z" class="st1"/><path id="XMLID_31_" d="M546.9 472.1h-94.2c-3.3 0-6-2.7-6-6v-34c0-3.3 2.7-6 6-6h94.2c3.3 0 6 2.7 6 6v34c0 3.3-2.7 6-6 6z" style="opacity:.51;fill:#7db9f9"/><path id="XMLID_48_" d="m479 472.1 45.7-46h-18.8l-45.7 46z" class="st23"/><path id="XMLID_46_" d="m498.7 472.1 45.6-46H535l-45.7 46z" class="st23"/><path id="XMLID_29_" d="M546.9 473.1h-94.2c-3.3 0-6-2.7-6-6v-36c0-3.3 2.7-6 6-6h94.2c3.3 0 6 2.7 6 6v36c0 3.3-2.7 6-6 6z" class="st3"/><path id="XMLID_50_" d="M533.1 510.6h39.4" class="st24"/><path id="XMLID_45_" d="M427 510.6h94.1" class="st24"/><path id="XMLID_51_" d="M427 527.2h145.5" class="st24"/><path id="XMLID_32_" d="M363.2 401.9h-30.5c-3.4 0-6.1-2.7-6.1-6.1v-30.5c0-3.4 2.7-6.1 6.1-6.1h30.5c3.4 0 6.1 2.7 6.1 6.1v30.5c0 3.4-2.7 6.1-6.1 6.1z" style="fill:#6dd2b9"/><path id="XMLID_35_" d="M352.1 386.5h-10.3l-1.8 5h-4.2l8.8-24.6h4.7l8.8 24.6h-4.2l-1.8-5zm-5.2-14.8-4 11.4h8l-4-11.4z" style="fill:#32b94d"/><path id="XMLID_96_" d="m233.8 634.2-7.1-6.7c-1.8-1.7-2.9-4.3-2.9-7.1v-93.8c0-3.3 1.5-6.3 3.8-7.8l6.2-4.2v119.6z" class="st4"/><path id="XMLID_92_" d="M365 368.6h307.9" class="st27"/><path id="XMLID_94_" d="M365 380.6h307.9" class="st27"/><path id="XMLID_152_" d="M365 392.6h307.9" class="st27"/><path id="XMLID_91_" d="m233.8 634.2-7.1-6.7c-1.8-1.7-2.9-4.3-2.9-7.1v-93.8c0-3.3 1.5-6.3 3.8-7.8l6.2-4.2v119.6z" class="st3"/></svg>