<svg xmlns="http://www.w3.org/2000/svg" xml:space="preserve" id="Layer_1" x="0" y="0" style="enable-background:new 0 0 1000 1000" version="1.1" viewBox="0 0 1000 1000"><style>.st1{fill:#eef2f4}.st3{fill:#56242a}.st4{fill:none;stroke:#56242a;stroke-width:4;stroke-linecap:round;stroke-linejoin:round;stroke-miterlimit:10}.st5{opacity:.53}.st5,.st7{fill:none;stroke:#fff;stroke-width:4;stroke-linecap:round;stroke-miterlimit:10}.st9{fill:#fff}.st11{fill:none;stroke:#56242a;stroke-width:6;stroke-linecap:round;stroke-linejoin:round;stroke-miterlimit:10}.st12{fill:#da4328}.st13{opacity:.34;fill:#bc2f1d}.st14{fill:#e85642}.st18,.st19{fill:none;stroke:#934451;stroke-width:4;stroke-linecap:round;stroke-linejoin:round;stroke-miterlimit:10}.st19{stroke:#56242a;stroke-width:2}</style><path id="XMLID_14_" d="M0 0h1000v1000H0z" style="fill:#3a3d41"/><path d="M63.2 959.2c0 2.5-1.2 3.7-2.6 3.7-1.1 0-1.9-.5-2.1-1.4-.4.5-1 .8-1.8.8-1.5 0-2.6-1.2-2.6-2.8 0-1.6 1.1-2.8 2.6-2.8.7 0 1.2.3 1.6.7v-.5h1.6v3.9c0 .8.3 1.4 1 1.4.9 0 1.7-.9 1.7-3 0-3-2.3-5.3-5.4-5.3-3.1 0-5.6 2.4-5.6 5.7 0 3.3 2.5 5.7 5.9 5.7 1.1 0 2.1-.2 2.9-.4v.6c-.8.3-1.7.4-2.9.4-3.7 0-6.5-2.6-6.5-6.2 0-3.4 2.7-6.2 6.2-6.2 3.9-.2 6 2.9 6 5.7zm-4.9.3c0-.8-.6-1.4-1.3-1.4-.8 0-1.3.5-1.3 1.4 0 .8.6 1.3 1.3 1.3.8.1 1.3-.5 1.3-1.3zM69.4 955.1v2c-1.2-.1-2.6.5-2.6 2.4v4.3h-1.9v-8.6h1.9v1.4c.5-1.1 1.5-1.5 2.6-1.5zM74.6 962.3c1 0 1.8-.5 2.2-1.1l1.5.9c-.8 1.2-2.1 1.9-3.8 1.9-2.8 0-4.7-1.9-4.7-4.5 0-2.5 1.8-4.5 4.5-4.5 2.6 0 4.3 2.1 4.3 4.5 0 .3 0 .5-.1.8h-6.8c.4 1.3 1.5 2 2.9 2zm2.3-3.5c-.3-1.5-1.3-2.1-2.5-2.1-1.4 0-2.3.8-2.6 2.1h5.1zM88.9 955.2v8.6H87v-1.2c-.7.9-1.7 1.5-3 1.5-2.3 0-4.3-2-4.3-4.5 0-2.6 1.9-4.5 4.3-4.5 1.3 0 2.3.5 3 1.4v-1.2h1.9zm-1.8 4.3c0-1.6-1.2-2.7-2.7-2.7-1.5 0-2.7 1.1-2.7 2.7s1.2 2.7 2.7 2.7c1.5.1 2.7-1.1 2.7-2.7zM91.1 951.3H93v12.5h-1.9v-12.5zM102.9 955.2l-3.3 8.6h-2.1l-3.3-8.6h2l2.4 6.5 2.4-6.5h1.9zM104.2 955.2h1.9v8.9c0 2.4-1.2 3.5-3.5 3.3v-1.8c1.1.1 1.7-.3 1.7-1.5v-8.9zm-.2-2.4c0-.7.5-1.2 1.2-1.2s1.2.5 1.2 1.2c0 .6-.5 1.2-1.2 1.2s-1.2-.6-1.2-1.2zM116 955.2l-3.3 8.8c-.8 2.2-2.2 3.3-4.2 3.2v-1.7c1.2.1 1.9-.5 2.3-1.7l.1-.2-3.6-8.4h2l2.6 6.2 2.2-6.2h1.9zM211.9 938.7c0 2.1-1.5 3.8-3.6 3.8h-3v-7.6h3c2.1 0 3.6 1.7 3.6 3.8zm-1 0c0-1.6-1.1-2.9-2.6-2.9h-2v5.7h2c1.5.1 2.6-1.2 2.6-2.8zM219.5 940.8h-3.4l-.6 1.7h-1.1l2.8-7.6h1.1l2.8 7.6H220l-.5-1.7zm-.3-.9-1.4-3.8-1.4 3.8h2.8zM226.4 939.4v3.1h-1v-3.1l-2.7-4.5h1.1l2.1 3.6 2.1-3.6h1.1l-2.7 4.5zM236.9 941.7l2.7-2.7c.6-.6 1.1-1.2 1.1-1.9 0-.9-.6-1.4-1.4-1.4-.7 0-1.2.3-1.6 1l-.8-.5c.5-1 1.4-1.5 2.4-1.5 1.2 0 2.4.8 2.4 2.3 0 .9-.6 1.8-1.4 2.5l-2 1.9h3.5v1h-4.9v-.7zM249.9 940.3c0 1.5-1.2 2.4-2.6 2.4-1.1 0-2.1-.5-2.5-1.5l.9-.5c.2.7.8 1.1 1.7 1.1.9 0 1.6-.5 1.6-1.4 0-.9-.7-1.4-1.6-1.4h-.4l-.4-.6 1.8-2.4H245v-.9h4.6v.9l-1.7 2.2c1.1 0 2 .8 2 2.1zM58.9 938.7c0 2.1-1.5 3.8-3.6 3.8h-3v-7.6h3c2.1 0 3.6 1.7 3.6 3.8zm-1 0c0-1.6-1.1-2.9-2.6-2.9h-2v5.7h2c1.5.1 2.6-1.2 2.6-2.8zM67 941.6v1h-4.6V935h4.5v1h-3.5v2.3h3.2v.9h-3.2v2.4H67zM70 940.8l.9-.5c.3.8.9 1.4 2 1.4s1.6-.5 1.6-1.2c0-.8-.7-1-1.8-1.4-1.2-.4-2.4-.8-2.4-2.2 0-1.4 1.1-2.2 2.4-2.2 1.3 0 2.2.7 2.6 1.7l-.8.5c-.3-.7-.8-1.2-1.7-1.2-.8 0-1.4.4-1.4 1.1 0 .7.5 1 1.6 1.3 1.3.4 2.6.8 2.6 2.3 0 1.3-1.1 2.2-2.6 2.2-1.5.1-2.6-.7-3-1.8zM80 934.9v7.6h-1v-7.6h1zM91.3 939.2c0 1.9-1.4 3.5-3.7 3.5-2.4 0-4-1.8-4-4s1.7-4 4-4c1.4 0 2.7.8 3.3 1.8l-.9.5c-.4-.8-1.4-1.4-2.4-1.4-1.8 0-3 1.3-3 3s1.2 3 3 3c1.6 0 2.5-.9 2.7-2h-2.8v-.9h3.8v.5zM100.6 934.9v7.6h-.8l-3.9-5.7v5.7h-1v-7.6h.8l3.9 5.7v-5.7h1zM109.1 941.6v1h-4.6V935h4.5v1h-3.5v2.3h3.2v.9h-3.2v2.4h3.6zM119.2 938.7c0 2.1-1.5 3.8-3.6 3.8h-3v-7.6h3c2 0 3.6 1.7 3.6 3.8zm-1 0c0-1.6-1.1-2.9-2.6-2.9h-2v5.7h2c1.5.1 2.6-1.2 2.6-2.8zM133.2 940.4c0 1.2-1 2.2-2.2 2.2h-3.3V935h3c1.2 0 2.1.9 2.1 2.1 0 .7-.3 1.2-.8 1.6.7.2 1.2.8 1.2 1.7zm-4.5-4.6v2.3h2c.6 0 1.1-.5 1.1-1.2 0-.6-.5-1.2-1.1-1.2h-2zm3.5 4.5c0-.7-.5-1.2-1.2-1.2h-2.3v2.5h2.3c.7 0 1.2-.6 1.2-1.3zM139.4 939.4v3.1h-1v-3.1l-2.7-4.5h1.1l2.1 3.6 2.1-3.6h1.1l-2.7 4.5zM209.9 959.8h-2.4v4.5h-2v-12.4h5c2.2 0 4 1.8 4 4 0 1.6-1 3-2.5 3.6l2.8 4.8h-2.2l-2.7-4.5zm-2.4-1.8h2.9c1.1 0 1.9-.9 1.9-2.1 0-1.2-.9-2.1-1.9-2.1h-2.9v4.2zM224.6 955.4v8.9h-1.9V963c-.7.9-1.7 1.5-3.1 1.5-2.4 0-4.4-2-4.4-4.7 0-2.6 2-4.7 4.4-4.7 1.4 0 2.4.6 3.1 1.5v-1.3h1.9zm-1.9 4.5c0-1.6-1.2-2.8-2.8-2.8-1.6 0-2.8 1.2-2.8 2.8 0 1.6 1.2 2.8 2.8 2.8 1.6 0 2.8-1.2 2.8-2.8zM235.8 951.9v12.4h-1.9V963c-.7.9-1.7 1.5-3.1 1.5-2.4 0-4.4-2-4.4-4.7 0-2.6 2-4.7 4.4-4.7 1.4 0 2.4.6 3.1 1.5v-4.8h1.9zm-1.9 8c0-1.6-1.2-2.8-2.8-2.8-1.6 0-2.8 1.2-2.8 2.8 0 1.6 1.2 2.8 2.8 2.8 1.6 0 2.8-1.2 2.8-2.8zM237.8 952.9c0-.7.5-1.2 1.2-1.2s1.2.5 1.2 1.2-.5 1.2-1.2 1.2-1.2-.5-1.2-1.2zm.2 2.5h1.9v8.9H238v-8.9zM241.7 959.9c0-2.6 2.1-4.7 4.7-4.7s4.7 2 4.7 4.7c0 2.6-2.1 4.7-4.7 4.7-2.6-.1-4.7-2.1-4.7-4.7zm7.4 0c0-1.6-1.2-2.8-2.8-2.8s-2.8 1.2-2.8 2.8c0 1.6 1.2 2.8 2.8 2.8s2.8-1.2 2.8-2.8zM846.1 938.7c0 2.1-1.5 3.8-3.6 3.8h-3v-7.6h3c2.1 0 3.6 1.7 3.6 3.8zm-.9 0c0-1.6-1.1-2.9-2.6-2.9h-2v5.7h2c1.5.1 2.6-1.2 2.6-2.8zM849.3 938.7c0-2.2 1.7-4 3.9-4s4 1.8 4 4-1.7 4-4 4c-2.2 0-3.9-1.8-3.9-4zm6.8 0c0-1.7-1.3-3-2.9-3-1.7 0-2.9 1.3-2.9 3s1.3 3 2.9 3c1.7 0 2.9-1.3 2.9-3zM859.8 934.9h1.1l1.7 6.3 1.9-6.3h1l1.9 6.3 1.7-6.3h1.1l-2.2 7.6h-1.2l-1.8-6.1-1.8 6.1H862l-2.2-7.6zM879.3 934.9v7.6h-.8l-3.9-5.7v5.7h-1v-7.6h.8l3.9 5.7v-5.7h1zM887.5 941.6v1h-4.3V935h1v6.7h3.3zM889.9 938.7c0-2.2 1.7-4 3.9-4s4 1.8 4 4-1.7 4-4 4c-2.2 0-3.9-1.8-3.9-4zm6.9 0c0-1.7-1.3-3-2.9-3-1.7 0-2.9 1.3-2.9 3s1.3 3 2.9 3c1.6 0 2.9-1.3 2.9-3zM905.4 940.8H902l-.6 1.7h-1.1l2.8-7.6h1.1l2.8 7.6h-1l-.6-1.7zm-.3-.9-1.4-3.8-1.4 3.8h2.8zM916.9 938.7c0 2.1-1.5 3.8-3.6 3.8h-3v-7.6h3c2.1 0 3.6 1.7 3.6 3.8zm-1 0c0-1.6-1.1-2.9-2.6-2.9h-2v5.7h2c1.6.1 2.6-1.2 2.6-2.8zM926.5 935.8v2.5h3.2v1h-3.2v3.2h-1v-7.6h4.4v1h-3.4zM936.2 939.6h-1.8v2.9h-1v-7.6h3c1.3 0 2.4 1.1 2.4 2.4 0 1-.7 1.9-1.6 2.2l1.8 3.1h-1.1l-1.7-3zm-1.8-.9h2c.8 0 1.4-.6 1.4-1.4 0-.8-.6-1.4-1.4-1.4h-2v2.8zM941.9 938.7c0-2.2 1.7-4 3.9-4s4 1.8 4 4-1.7 4-4 4c-2.2 0-3.9-1.8-3.9-4zm6.9 0c0-1.7-1.3-3-2.9-3-1.7 0-2.9 1.3-2.9 3s1.3 3 2.9 3c1.6 0 2.9-1.3 2.9-3zM960.4 942.5h-1v-6l-2.5 4.2h-.1l-2.5-4.1v5.9h-1v-7.6h1.1l2.4 4 2.4-4h1.1v7.6zM839.3 952.9c0-.7.5-1.2 1.2-1.2s1.2.5 1.2 1.2-.5 1.2-1.2 1.2c-.6 0-1.2-.5-1.2-1.2zm.3 2.5h1.9v8.9h-1.9v-8.9zM843.7 951.4h1.9v12.9h-1.9v-12.9zM847.8 951.4h1.9v12.9h-1.9v-12.9zM852 951.4h1.9v12.9H852v-12.9zM864 955.4v8.9h-1.9v-1.1c-.6.9-1.5 1.4-2.7 1.4-2 0-3.4-1.3-3.4-3.6v-5.4h1.9v5.2c0 1.3.8 2.1 2 2.1 1.3 0 2.2-.7 2.2-2.5v-4.7h1.9zM872.6 961.8c0 1.8-1.5 2.7-3.5 2.7-1.8 0-3-.8-3.6-2.1l1.6-1c.3.8 1 1.3 2 1.3.8 0 1.5-.3 1.5-1 0-1.6-4.8-.7-4.8-3.9 0-1.7 1.4-2.7 3.2-2.7 1.5 0 2.7.7 3.3 1.8l-1.6.9c-.3-.7-.9-1-1.7-1-.7 0-1.3.3-1.3.9.2 1.8 4.9.8 4.9 4.1zM876.7 957.3v4.2c0 1.1.7 1.1 2.2 1v1.7c-2.9.4-4.1-.5-4.1-2.8v-4.2h-1.6v-1.8h1.6v-1.9l1.9-.6v2.5h2.2v1.8h-2.2zM885.4 955.3v2.1c-1.3-.1-2.7.5-2.7 2.5v4.5h-1.9v-8.9h1.9v1.5c.5-1.3 1.5-1.7 2.7-1.7zM895.3 955.4v8.9h-1.9V963c-.7.9-1.7 1.5-3.1 1.5-2.4 0-4.4-2-4.4-4.7 0-2.6 2-4.7 4.4-4.7 1.4 0 2.4.6 3.1 1.5v-1.3h1.9zm-1.9 4.5c0-1.6-1.2-2.8-2.8-2.8-1.6 0-2.8 1.2-2.8 2.8 0 1.6 1.2 2.8 2.8 2.8 1.6 0 2.8-1.2 2.8-2.8zM900.3 957.3v4.2c0 1.1.7 1.1 2.2 1v1.7c-2.9.4-4.1-.5-4.1-2.8v-4.2h-1.6v-1.8h1.6v-1.9l1.9-.6v2.5h2.2v1.8h-2.2zM903.9 952.9c0-.7.5-1.2 1.2-1.2s1.2.5 1.2 1.2-.5 1.2-1.2 1.2c-.6 0-1.2-.5-1.2-1.2zm.3 2.5h1.9v8.9h-1.9v-8.9zM907.8 959.9c0-2.6 2.1-4.7 4.7-4.7s4.7 2 4.7 4.7c0 2.6-2.1 4.7-4.7 4.7-2.6-.1-4.7-2.1-4.7-4.7zm7.5 0c0-1.6-1.2-2.8-2.8-2.8-1.6 0-2.8 1.2-2.8 2.8 0 1.6 1.2 2.8 2.8 2.8 1.6 0 2.8-1.2 2.8-2.8zM927 958.9v5.4h-1.9v-5.2c0-1.3-.8-2.1-2-2.1-1.3 0-2.2.7-2.2 2.5v4.7H919v-8.9h1.9v1.1c.6-.9 1.5-1.4 2.7-1.4 1.9.2 3.4 1.6 3.4 3.9zM935.5 961.8c0 1.8-1.5 2.7-3.5 2.7-1.8 0-3-.8-3.6-2.1l1.6-1c.3.8 1 1.3 2 1.3.8 0 1.5-.3 1.5-1 0-1.6-4.8-.7-4.8-3.9 0-1.7 1.4-2.7 3.2-2.7 1.5 0 2.7.7 3.3 1.8l-1.6.9c-.3-.7-.9-1-1.7-1-.7 0-1.3.3-1.3.9.1 1.8 4.9.8 4.9 4.1zM936.8 963.2c0-.7.6-1.3 1.3-1.3.7 0 1.3.6 1.3 1.3 0 .7-.6 1.3-1.3 1.3-.7 0-1.3-.6-1.3-1.3zM940.3 959.9c0-2.6 2-4.7 4.7-4.7 1.7 0 3.2.9 3.9 2.3l-1.6 1c-.4-.8-1.3-1.4-2.3-1.4-1.6 0-2.7 1.2-2.7 2.8 0 1.6 1.2 2.8 2.7 2.8 1.1 0 1.9-.5 2.4-1.4l1.6.9c-.7 1.4-2.2 2.3-4 2.3-2.7 0-4.7-2-4.7-4.6zM949.7 959.9c0-2.6 2.1-4.7 4.7-4.7s4.7 2 4.7 4.7c0 2.6-2.1 4.7-4.7 4.7-2.6-.1-4.7-2.1-4.7-4.7zm7.5 0c0-1.6-1.2-2.8-2.8-2.8s-2.8 1.2-2.8 2.8c0 1.6 1.2 2.8 2.8 2.8s2.8-1.2 2.8-2.8z" class="st1"/><ellipse id="XMLID_5_" cx="509" cy="708.8" rx="280.6" ry="14.9" style="opacity:.67;fill:#2f3133"/><g id="XMLID_110_"><path id="XMLID_100_" d="M352.1 472.3 336.7 457l132.6-128.6 11.3 11.4z" class="st3"/><path id="XMLID_13_" d="M352.1 472.3 336.7 457l132.6-128.6 11.3 11.4z" class="st4"/><path id="XMLID_101_" d="m478.9 338.1-7.9-7.9 131.6-129.6 5.8 5.9z" class="st3"/><path id="XMLID_106_" d="M602.4 205.4 476.1 329.1" class="st5"/><path id="XMLID_109_" d="M468.1 338.3 341.8 462" class="st5"/><path id="XMLID_15_" d="m478.9 338.1-7.9-7.9 131.6-129.6 5.8 5.9z" class="st4"/><g id="XMLID_108_"><path id="XMLID_102_" d="m605 186.6-7 7c-.6.6-.7 1.6-.2 2.3 4.4 5.8 9.5 10.9 15.3 15.3.7.5 1.7.4 2.3-.2l7.1-7.1c.6-.6.7-1.6.2-2.3-4.4-5.8-9.5-10.9-15.3-15.3-.8-.4-1.8-.3-2.4.3z" class="st3"/><path id="XMLID_111_" d="M621.9 202.5c-4-5.8-8.9-10.8-14.7-14.7-.7-.5-1.8-.2-2.6.6l-1.9 1.9c.8-.8-4.9 4-4.2 4.5.3.2 7.4-5 7.7-4.8 5.4 3.9 10.1 9 13.9 14.5.5.7.2 1.8-.6 2.6l1.9-1.9c.8-.9 1-2 .5-2.7z" style="opacity:.53;fill:#fff"/><path id="XMLID_16_" d="m605 186.6-7 7c-.6.6-.7 1.6-.2 2.3 4.4 5.8 9.5 10.9 15.3 15.3.7.5 1.7.4 2.3-.2l7.1-7.1c.6-.6.7-1.6.2-2.3-4.4-5.8-9.5-10.9-15.3-15.3-.8-.4-1.8-.3-2.4.3z" class="st4"/></g></g><path id="XMLID_4_" d="M725.1 415.8c-1.2-23.1-18.9-41.9-41.6-44.5-119.8-13.9-240.8-13.9-360.5 0-22.7 2.6-40.4 21.4-41.6 44.5-1.8 33-.6 65.6 3.5 99.2.3 0 .7.1 1 .1-2.9-29.1-3.6-57.5-2.1-86.3 1.2-22.9 18.7-41.5 41.2-44.1 118.5-13.8 238.2-13.8 356.7 0 22.5 2.6 39.9 21.2 41.2 44.1 1.5 28.8.8 57.2-2.1 86.3.3 0 .7-.1 1-.1 3.9-33.6 5.1-66.2 3.3-99.2z" class="st3"/><g id="XMLID_124_" style="opacity:.29"><path id="XMLID_127_" d="M281.4 424.8c1.2-23.1 18.9-41.9 41.6-44.5 119.8-13.9 240.8-13.9 360.5 0 22.7 2.6 40.4 21.4 41.6 44.5.4 8.2.7 16.3.8 24.4.1-11.5-.2-22.9-.8-34.4-1.2-23.1-18.9-41.9-41.6-44.5-119.8-13.9-240.8-13.9-360.5 0-22.7 2.6-40.4 21.4-41.6 44.5-.6 11.5-.9 22.9-.8 34.4.1-8.1.4-16.2.8-24.4z" class="st9"/><path id="XMLID_128_" d="M284.9 514c.3 0 .6.1.9.1-1.8-17.4-2.7-34.5-2.9-51.7-.1 17.2.6 34.3 2 51.6z" class="st9"/><path id="XMLID_129_" d="M723.5 462.5c-.2 17.1-1.1 34.3-2.9 51.7.3 0 .6-.1.9-.1 1.6-17.4 2.2-34.5 2-51.6z" class="st9"/></g><path id="XMLID_121_" d="M725.1 415.8c-1.2-23.1-18.9-41.9-41.6-44.5-119.8-13.9-240.8-13.9-360.5 0-22.7 2.6-40.4 21.4-41.6 44.5-1.8 33-.6 65.6 3.5 99.2.3 0 .7.1 1 .1-2.9-29.1-3.6-57.5-2.1-86.3 1.2-22.9 18.7-41.5 41.2-44.1 118.5-13.8 238.2-13.8 356.7 0 22.5 2.6 39.9 21.2 41.2 44.1 1.5 28.8.8 57.2-2.1 86.3.3 0 .7-.1 1-.1 3.9-33.6 5.1-66.2 3.3-99.2z" class="st4"/><path id="XMLID_21_" d="M285 613.5h-21.7c-6 0-11-4.6-11.5-10.7-2.2-23-2.2-46.1 0-69.1.6-6.1 5.5-10.7 11.5-10.7H285c6 0 11 4.6 11.5 10.7 2.2 23 2.2 46.1 0 69.1-.5 6-5.5 10.7-11.5 10.7z" class="st3"/><path id="XMLID_103_" d="M257 602.8c-2.2-23-2.2-46.1 0-69.1.6-6.1 5.5-10.7 11.5-10.7h-5.2c-6 0-11 4.6-11.5 10.7-2.2 23-2.2 46.1 0 69.1.6 6.1 5.5 10.7 11.5 10.7h5.2c-5.9 0-10.9-4.7-11.5-10.7z" style="opacity:.47;fill:#f9dedc"/><path id="XMLID_11_" d="M285 613.5h-21.7c-6 0-11-4.6-11.5-10.7-2.2-23-2.2-46.1 0-69.1.6-6.1 5.5-10.7 11.5-10.7H285c6 0 11 4.6 11.5 10.7 2.2 23 2.2 46.1 0 69.1-.5 6-5.5 10.7-11.5 10.7z" class="st11"/><path id="XMLID_18_" d="M685.2 703.6c-119 10-238.5 10-357.5 0-25-2.1-45.3-21.2-49-46-8.9-59.9-8.9-118.9 0-178.8 3.7-24.8 23.9-43.9 49-46 119-10 238.5-10 357.5 0 25 2.1 45.3 21.2 49 46 8.9 59.9 8.9 118.9 0 178.8-3.7 24.9-24 43.9-49 46z" class="st12"/><path id="XMLID_24_" d="M734.2 480.8c-3.7-24.8-23.9-43.9-49-46-84.1-7.1-168.5-9.1-252.7-6.2 77.6-1.5 155.3 1 232.7 7.5 26.4 2.2 47.7 22.3 51.6 48.5 9.4 63.2 9.4 125.4 0 188.5-1.5 10.1-5.6 19.3-11.6 26.9 15.3-7.8 26.4-22.6 29-40.3 8.8-60 8.8-119 0-178.9z" class="st13"/><path id="XMLID_104_" d="M278.8 486.4c3.7-24.8 23.9-43.9 49-46 119-10 238.5-10 357.5 0 25 2.1 45.3 21.2 49 46 4.2 28.5 6.4 56.8 6.6 85.1.2-31.2-2-62.3-6.6-93.7-3.7-24.8-23.9-43.9-49-46-119-10-238.5-10-357.5 0-25 2.1-45.3 21.2-49 46-4.6 31.4-6.8 62.6-6.6 93.7.2-28.3 2.4-56.6 6.6-85.1z" class="st14"/><path id="XMLID_26_" d="M296.2 673.1c-9.4-63.2-9.4-125.4 0-188.5 3.9-26.2 25.2-46.3 51.6-48.5 77.4-6.5 155.1-9 232.7-7.5-84.3-2.9-168.7-.9-252.7 6.2-25 2.1-45.3 21.2-49 46-8.9 59.9-8.9 118.9 0 178.8 2.6 17.8 13.7 32.5 29 40.3-6-7.5-10.1-16.7-11.6-26.8z" class="st13"/><path id="XMLID_27_" d="M303.7 695.6c7.1 4.4 15.3 7.3 24.1 8 119 10 238.5 10 357.5 0 8.8-.7 17-3.6 24.1-8-135.1 10.7-270.7 10.7-405.7 0z" class="st14"/><path id="XMLID_19_" d="M734.2 478.8c0-.2-.1-.3-.1-.5-10.5-10.1-25.1-16.3-41.1-16.1-6.1.1-12.9.7-21 1.7-57.3 5.8-139.3 49.1-177.3 78.3-22.4 17.8-22.4 34.2 0 52 38 29.2 120 72.4 177.3 78.3 8.1 1.1 14.9 1.6 21 1.7 16.1.2 30.7-6 41.1-16.1 0-.2.1-.3.1-.5 8.8-59.9 8.8-118.9 0-178.8z" style="fill:#843949"/><defs><filter id="Adobe_OpacityMaskFilter" width="276.1" height="198" x="475.8" y="468.8" filterUnits="userSpaceOnUse"><feColorMatrix color-interpolation-filters="sRGB" result="source" values="-1 0 0 0 1 0 -1 0 0 1 0 0 -1 0 1 0 0 0 1 0"/></filter></defs><mask id="XMLID_2_" width="276.1" height="198" x="475.8" y="468.8" maskUnits="userSpaceOnUse"><g id="XMLID_20_" style="filter:url(#Adobe_OpacityMaskFilter)"><path id="XMLID_23_" d="M734.2 478.8c0-.2-.1-.3-.1-.5-10.5-10.1-25.1-16.3-41.1-16.1-6.1.1-12.9.7-21 1.7-57.3 5.8-139.3 49.1-177.3 78.3-22.4 17.8-22.4 34.2 0 52 38 29.2 120 72.4 177.3 78.3 8.1 1.1 14.9 1.6 21 1.7 16.1.2 30.7-6 41.1-16.1 0-.2.1-.3.1-.5 8.8-59.9 8.8-118.9 0-178.8z"/></g></mask><g id="XMLID_22_" style="mask:url(#XMLID_2_)"><g id="XMLID_96_"><path id="XMLID_99_" d="M477.8 662.8h272" class="st18"/><path id="XMLID_98_" d="M477.8 665.8h272" class="st19"/></g><g id="XMLID_92_"><path id="XMLID_95_" d="M477.8 650.8h272" class="st18"/><path id="XMLID_94_" d="M477.8 653.8h272" class="st19"/></g><g id="XMLID_88_"><path id="XMLID_91_" d="M477.8 638.8h272" class="st18"/><path id="XMLID_90_" d="M477.8 641.8h272" class="st19"/></g><g id="XMLID_84_"><path id="XMLID_87_" d="M477.8 626.8h272" class="st18"/><path id="XMLID_86_" d="M477.8 629.8h272" class="st19"/></g><g id="XMLID_80_"><path id="XMLID_83_" d="M477.8 614.8h272" class="st18"/><path id="XMLID_82_" d="M477.8 617.8h272" class="st19"/></g><g id="XMLID_76_"><path id="XMLID_79_" d="M477.8 602.8h272" class="st18"/><path id="XMLID_78_" d="M477.8 605.8h272" class="st19"/></g><g id="XMLID_72_"><path id="XMLID_75_" d="M477.8 590.8h272" class="st18"/><path id="XMLID_74_" d="M477.8 593.8h272" class="st19"/></g><g id="XMLID_68_"><path id="XMLID_71_" d="M477.8 578.8h272" class="st18"/><path id="XMLID_70_" d="M477.8 581.8h272" class="st19"/></g><g id="XMLID_64_"><path id="XMLID_67_" d="M477.8 566.8h272" class="st18"/><path id="XMLID_66_" d="M477.8 569.8h272" class="st19"/></g><g id="XMLID_60_"><path id="XMLID_63_" d="M477.8 554.8h272" class="st18"/><path id="XMLID_62_" d="M477.8 557.8h272" class="st19"/></g><g id="XMLID_55_"><path id="XMLID_59_" d="M477.8 542.8h272" class="st18"/><path id="XMLID_58_" d="M477.8 545.8h272" class="st19"/></g><g id="XMLID_51_"><path id="XMLID_54_" d="M477.8 530.8h272" class="st18"/><path id="XMLID_53_" d="M477.8 533.8h272" class="st19"/></g><g id="XMLID_47_"><path id="XMLID_50_" d="M477.8 518.8h272" class="st18"/><path id="XMLID_49_" d="M477.8 521.8h272" class="st19"/></g><g id="XMLID_43_"><path id="XMLID_46_" d="M477.8 506.8h272" class="st18"/><path id="XMLID_45_" d="M477.8 509.8h272" class="st19"/></g><g id="XMLID_39_"><path id="XMLID_42_" d="M477.8 494.8h272" class="st18"/><path id="XMLID_41_" d="M477.8 497.8h272" class="st19"/></g><g id="XMLID_35_"><path id="XMLID_38_" d="M477.8 482.8h272" class="st18"/><path id="XMLID_37_" d="M477.8 485.8h272" class="st19"/></g><g id="XMLID_31_"><path id="XMLID_34_" d="M477.8 470.8h272" class="st18"/><path id="XMLID_33_" d="M477.8 473.8h272" class="st19"/></g></g><path id="XMLID_36_" d="M494.6 549.7c38-29.2 120-72.4 177.3-78.3 8.1-1.1 14.9-1.6 21-1.7 16.1-.2 30.7 6 41.1 16.1 0 .2.1.3.1.5 4.2 28.7 6.4 57.2 6.6 85.7.2-31-2-61.9-6.6-93.2 0-.2-.1-.3-.1-.5-10.5-10.1-25.1-16.3-41.1-16.1-6.1.1-12.9.7-21 1.7-57.3 5.8-139.3 49.1-177.3 78.3-12.9 10.2-18.3 19.9-16.5 29.7 1.4-7.2 6.9-14.6 16.5-22.2z" style="opacity:.44;fill:#542934"/><path id="XMLID_32_" d="M734.2 648.7c0 .2-.1.3-.1.5-10.5 10.1-25.1 16.3-41.1 16.1-6.1-.1-12.9-.7-21-1.7-57.3-5.8-139.3-49.1-177.3-78.3-9.3-7.3-14.7-14.4-16.3-21.5-2.3 10.1 3.1 20 16.3 30.5 38 29.2 120 72.4 177.3 78.3 8.1 1.1 14.9 1.6 21 1.7 16.1.2 30.7-6 41.1-16.1 0-.2.1-.3.1-.5 4.7-31.5 6.8-62.7 6.6-93.9-.2 28.2-2.4 56.4-6.6 84.9z" style="opacity:.17;fill:#ba7483"/><path id="XMLID_28_" d="M734.2 478.8c0-.2-.1-.3-.1-.5a58.32 58.32 0 0 0-23.1-13.5c2.8 5.5 4.8 11.4 5.7 17.8 9.3 62.6 9.3 124.3.2 186.9 6.4-2.8 12.2-6.6 17.1-11.3 0-.2.1-.4.1-.5 8.9-60 8.9-119 .1-178.9z" style="opacity:.4;fill:#542934"/><path id="XMLID_12_" d="M734.2 478.8c0-.2-.1-.3-.1-.5-10.5-10.1-25.1-16.3-41.1-16.1-6.1.1-12.9.7-21 1.7-57.3 5.8-139.3 49.1-177.3 78.3-22.4 17.8-22.4 34.2 0 52 38 29.2 120 72.4 177.3 78.3 8.1 1.1 14.9 1.6 21 1.7 16.1.2 30.7-6 41.1-16.1 0-.2.1-.3.1-.5 8.8-59.9 8.8-118.9 0-178.8z" class="st11"/><path id="XMLID_93_" d="M317.2 481.3h180v51.5h-180z" style="opacity:.54;fill:#bc2f1d;stroke:#bc2f1d;stroke-width:4;stroke-linecap:round;stroke-linejoin:round;stroke-miterlimit:10"/><path id="XMLID_9_" d="M685.2 703.6c-119 10-238.5 10-357.5 0-25-2.1-45.3-21.2-49-46-8.9-59.9-8.9-118.9 0-178.8 3.7-24.8 23.9-43.9 49-46 119-10 238.5-10 357.5 0 25 2.1 45.3 21.2 49 46 8.9 59.9 8.9 118.9 0 178.8-3.7 24.9-24 43.9-49 46z" class="st11"/><path id="XMLID_25_" d="M321.2 484.8h172v44h-172z" style="fill:#dddbdb"/><path id="XMLID_30_" d="M401.8 486.4h9v42.4h-9z" style="fill:#ea1b3d"/><path id="XMLID_69_" d="M409.2 486.4h1.6v42.4h-1.6z" style="fill:#d11539"/><path id="XMLID_89_" d="M489.9 491.3H324.4c-1.8 0-3.2-1.5-3.2-3.2 0-1.8 1.5-3.2 3.2-3.2h165.5c1.8 0 3.2 1.5 3.2 3.2.1 1.8-1.4 3.2-3.2 3.2z" style="opacity:.66;fill:#fff"/><path id="XMLID_97_" d="M489.9 529.1H324.4c-1.8 0-3.2-1.5-3.2-3.2v-.8c0-1.8 1.5-3.2 3.2-3.2h165.5c1.8 0 3.2 1.5 3.2 3.2v.8c.1 1.7-1.4 3.2-3.2 3.2z" style="opacity:.32;fill:#898989"/><path id="XMLID_10_" d="M321.2 484.8h172v44h-172z" class="st4"/><g id="XMLID_29_"><g id="XMLID_81_"><path id="XMLID_85_" d="M477.4 502h-.5c-1 0-1.9-.8-1.9-1.9v-4.5c0-1 .8-1.9 1.9-1.9h.5c1 0 1.9.8 1.9 1.9v4.5c0 1.1-.8 1.9-1.9 1.9z" class="st3"/></g><g id="XMLID_73_"><path id="XMLID_77_" d="M449.4 502h-.5c-1 0-1.9-.8-1.9-1.9v-4.5c0-1 .8-1.9 1.9-1.9h.5c1 0 1.9.8 1.9 1.9v4.5c0 1.1-.8 1.9-1.9 1.9z" class="st3"/></g><g id="XMLID_61_"><path id="XMLID_65_" d="M421.4 502h-.5c-1 0-1.9-.8-1.9-1.9v-4.5c0-1 .8-1.9 1.9-1.9h.5c1 0 1.9.8 1.9 1.9v4.5c0 1.1-.8 1.9-1.9 1.9z" class="st3"/></g><g id="XMLID_56_"><path id="XMLID_57_" d="M393.4 502h-.5c-1 0-1.9-.8-1.9-1.9v-4.5c0-1 .8-1.9 1.9-1.9h.5c1 0 1.9.8 1.9 1.9v4.5c0 1.1-.8 1.9-1.9 1.9z" class="st3"/></g><g id="XMLID_48_"><path id="XMLID_52_" d="M365.4 502h-.5c-1 0-1.9-.8-1.9-1.9v-4.5c0-1 .8-1.9 1.9-1.9h.5c1 0 1.9.8 1.9 1.9v4.5c0 1.1-.8 1.9-1.9 1.9z" class="st3"/></g><g id="XMLID_40_"><path id="XMLID_44_" d="M337.4 502h-.5c-1 0-1.9-.8-1.9-1.9v-4.5c0-1 .8-1.9 1.9-1.9h.5c1 0 1.9.8 1.9 1.9v4.5c0 1.1-.8 1.9-1.9 1.9z" class="st3"/></g></g><path id="XMLID_112_" d="M409.3 625.2h-77c-2.9 0-5.2-2.3-5.2-5.2 0-2.9 2.3-5.2 5.2-5.2h77c2.9 0 5.2 2.3 5.2 5.2 0 2.9-2.3 5.2-5.2 5.2z" class="st13"/><path id="XMLID_114_" d="M472.6 644H332.3c-2.9 0-5.2-2.3-5.2-5.2 0-2.9 2.3-5.2 5.2-5.2h140.3c2.9 0 5.2 2.3 5.2 5.2 0 2.9-2.4 5.2-5.2 5.2z" class="st13"/><path id="XMLID_115_" d="M528.7 662.8H332.3c-2.9 0-5.2-2.3-5.2-5.2 0-2.9 2.3-5.2 5.2-5.2h196.3c2.9 0 5.2 2.3 5.2 5.2 0 2.9-2.3 5.2-5.1 5.2z" class="st13"/><circle id="XMLID_113_" cx="340.2" cy="589.8" r="13" class="st13"/><circle id="XMLID_117_" cx="369.5" cy="589.8" r="8" class="st13"/><path id="XMLID_116_" d="M647.9 390.9c-48.1-4.3-96.7-6.5-144.6-6.5-47.9 0-96.6 2.2-144.6 6.5-2.9.3-5.4-2-5.4-5v-23.7c0-2.6 2-4.8 4.6-5 48.4-4.2 97.3-6.4 145.5-6.4s97.1 2.2 145.5 6.4c2.6.2 4.6 2.4 4.6 5v23.7c-.1 3-2.7 5.3-5.6 5z" class="st12"/><path id="XMLID_126_" d="M648.8 357.2c-48.4-4.2-97.3-6.4-145.5-6.4s-97.1 2.2-145.5 6.4c-2.6.2-4.6 2.4-4.6 5v6.6c0-2.6 2-4.8 4.6-5 48.4-4.2 97.3-6.4 145.5-6.4s97.1 2.2 145.5 6.4c2.6.2 4.6 2.4 4.6 5v-6.6c0-2.6-2-4.7-4.6-5z" class="st14"/><path id="XMLID_6_" d="M503.9 384.4c46.3 0 93.1 1.5 139.7 4.4-8-9.3-69.2-16.6-143.5-16.6-75.6 0-137.7 7.5-143.9 17.1 49.1-3.2 98.7-4.9 147.7-4.9z" class="st13"/><path id="XMLID_119_" d="M647.9 390.9c-48.1-4.3-96.7-6.5-144.6-6.5-47.9 0-96.6 2.2-144.6 6.5v0c-2.9.3-5.4-2-5.4-5v-23.7c0-2.6 2-4.8 4.6-5h0c48.4-4.2 97.3-6.4 145.5-6.4s97.1 2.2 145.5 6.4h0c2.6.2 4.6 2.4 4.6 5v23.7c-.1 3-2.7 5.3-5.6 5h0z" class="st4"/></svg>