<svg xmlns="http://www.w3.org/2000/svg" xml:space="preserve" width="800" height="800" viewBox="0 0 403 403"><path d="M201.5 174.506c-54.287 0-98.453 44.166-98.453 98.453s44.166 98.453 98.453 98.453c54.287 0 98.453-44.166 98.453-98.453s-44.167-98.453-98.453-98.453zm0 181.905c-46.016 0-83.453-37.437-83.453-83.453s37.437-83.453 83.453-83.453 83.453 37.437 83.453 83.453-37.437 83.453-83.453 83.453z"/><path d="M201.5 202.41c-38.9 0-70.548 31.648-70.548 70.549s31.648 70.549 70.548 70.549c38.901 0 70.549-31.648 70.549-70.549S240.401 202.41 201.5 202.41zm0 126.098c-30.629 0-55.548-24.919-55.548-55.549S170.87 217.41 201.5 217.41c30.63 0 55.549 24.919 55.549 55.549s-24.919 55.549-55.549 55.549z"/><path d="M201.5 249.89c-12.72 0-23.068 10.348-23.068 23.068s10.349 23.068 23.068 23.068c12.72 0 23.069-10.348 23.069-23.068S214.22 249.89 201.5 249.89zm0 31.137c-4.449 0-8.068-3.619-8.068-8.068s3.62-8.068 8.068-8.068 8.069 3.619 8.069 8.068-3.621 8.068-8.069 8.068zm-68.852-108.308c16.322 0 29.602-13.279 29.602-29.601s-13.279-29.602-29.602-29.602-29.601 13.279-29.601 29.602 13.279 29.601 29.601 29.601zm0-44.203c8.051 0 14.602 6.55 14.602 14.602s-6.55 14.601-14.602 14.601-14.601-6.55-14.601-14.601 6.55-14.602 14.601-14.602zm103.028-54.861c-12.72 0-23.068 10.349-23.068 23.069s10.349 23.068 23.068 23.068 23.068-10.348 23.068-23.068-10.348-23.069-23.068-23.069zm0 31.137c-4.449 0-8.068-3.619-8.068-8.068s3.619-8.069 8.068-8.069 8.068 3.62 8.068 8.069-3.619 8.068-8.068 8.068z"/><path d="M235.676 32.447c-35.442 0-64.277 28.834-64.277 64.277S200.234 161 235.676 161s64.276-28.834 64.276-64.277-28.834-64.276-64.276-64.276zm0 113.553c-27.171 0-49.277-22.105-49.277-49.277s22.106-49.277 49.277-49.277 49.276 22.105 49.276 49.277S262.847 146 235.676 146z"/><path d="M295.844 0H107.156C89.976 0 76 13.977 76 31.156v340.688C76 389.023 89.976 403 107.156 403h188.688c17.18 0 31.156-13.977 31.156-31.156V31.156C327 13.977 313.024 0 295.844 0zM312 371.844c0 8.909-7.248 16.156-16.156 16.156H107.156C98.247 388 91 380.752 91 371.844V31.156C91 22.248 98.247 15 107.156 15h188.688C304.752 15 312 22.248 312 31.156v340.688z"/></svg>