<svg xmlns="http://www.w3.org/2000/svg" xml:space="preserve" id="Layer_1" x="0" y="0" style="enable-background:new 0 0 1000 1000" version="1.1" viewBox="0 0 1000 1000"><style>.st1{fill:#413e51}.st6,.st8{fill:none;stroke:#413e51;stroke-width:6;stroke-linecap:round;stroke-linejoin:round;stroke-miterlimit:10}.st8{stroke-width:8}.st9{fill:#514e55}.st12{opacity:.52;fill:#ddd}</style><path id="XMLID_12_" d="M0 0h1000v1000H0z" style="fill:#6ad4ec"/><path d="M63.2 959.2c0 2.5-1.2 3.7-2.6 3.7-1.1 0-1.9-.5-2.1-1.4-.4.5-1 .8-1.8.8-1.5 0-2.6-1.2-2.6-2.8 0-1.6 1.1-2.8 2.6-2.8.7 0 1.2.3 1.6.7v-.5h1.6v3.9c0 .8.3 1.4 1 1.4.9 0 1.7-.9 1.7-3 0-3-2.3-5.3-5.4-5.3-3.1 0-5.6 2.4-5.6 5.7 0 3.3 2.5 5.7 5.9 5.7 1.1 0 2.1-.2 2.9-.4v.6c-.8.3-1.7.4-2.9.4-3.7 0-6.5-2.6-6.5-6.2 0-3.4 2.7-6.2 6.2-6.2 3.9-.2 6 2.9 6 5.7zm-4.9.3c0-.8-.6-1.4-1.3-1.4-.8 0-1.3.5-1.3 1.4 0 .8.6 1.3 1.3 1.3.8.1 1.3-.5 1.3-1.3zM69.4 955.1v2c-1.2-.1-2.6.5-2.6 2.4v4.3h-1.9v-8.6h1.9v1.4c.5-1.1 1.5-1.5 2.6-1.5zM74.6 962.3c1 0 1.8-.5 2.2-1.1l1.5.9c-.8 1.2-2.1 1.9-3.8 1.9-2.8 0-4.7-1.9-4.7-4.5 0-2.5 1.8-4.5 4.5-4.5 2.6 0 4.3 2.1 4.3 4.5 0 .3 0 .5-.1.8h-6.8c.4 1.3 1.5 2 2.9 2zm2.3-3.5c-.3-1.5-1.3-2.1-2.5-2.1-1.4 0-2.3.8-2.6 2.1h5.1zM88.9 955.2v8.6H87v-1.2c-.7.9-1.7 1.5-3 1.5-2.3 0-4.3-2-4.3-4.5 0-2.6 1.9-4.5 4.3-4.5 1.3 0 2.3.5 3 1.4v-1.2h1.9zm-1.8 4.3c0-1.6-1.2-2.7-2.7-2.7-1.5 0-2.7 1.1-2.7 2.7s1.2 2.7 2.7 2.7c1.5.1 2.7-1.1 2.7-2.7zM91.1 951.3H93v12.5h-1.9v-12.5zM102.9 955.2l-3.3 8.6h-2.1l-3.3-8.6h2l2.4 6.5 2.4-6.5h1.9zM104.2 955.2h1.9v8.9c0 2.4-1.2 3.5-3.5 3.3v-1.8c1.1.1 1.7-.3 1.7-1.5v-8.9zm-.2-2.4c0-.7.5-1.2 1.2-1.2s1.2.5 1.2 1.2c0 .6-.5 1.2-1.2 1.2s-1.2-.6-1.2-1.2zM116 955.2l-3.3 8.8c-.8 2.2-2.2 3.3-4.2 3.2v-1.7c1.2.1 1.9-.5 2.3-1.7l.1-.2-3.6-8.4h2l2.6 6.2 2.2-6.2h1.9zM211.9 938.7c0 2.1-1.5 3.8-3.6 3.8h-3v-7.6h3c2.1 0 3.6 1.7 3.6 3.8zm-1 0c0-1.6-1.1-2.9-2.6-2.9h-2v5.7h2c1.5.1 2.6-1.2 2.6-2.8zM219.5 940.8h-3.4l-.6 1.7h-1.1l2.8-7.6h1.1l2.8 7.6H220l-.5-1.7zm-.3-.9-1.4-3.8-1.4 3.8h2.8zM226.4 939.4v3.1h-1v-3.1l-2.7-4.5h1.1l2.1 3.6 2.1-3.6h1.1l-2.7 4.5zM239.5 934.9v7.6h-1V936l-1.6.5-.3-.9 2-.7h.9zM248.3 940.4c0 1.4-1.1 2.2-2.6 2.2s-2.6-.8-2.6-2.2c0-.8.5-1.5 1.2-1.9-.6-.3-.9-.9-.9-1.7 0-1.5 1.2-2.2 2.4-2.2s2.4.7 2.4 2.2c0 .8-.4 1.3-.9 1.7.5.4 1 1.1 1 1.9zm-1 0c0-.9-.7-1.3-1.6-1.3-.9 0-1.6.4-1.6 1.3s.7 1.3 1.6 1.3c.9 0 1.6-.5 1.6-1.3zm-3-3.5c0 .8.6 1.2 1.4 1.2.7 0 1.4-.4 1.4-1.2 0-.8-.6-1.2-1.4-1.2-.7 0-1.4.4-1.4 1.2zM58.9 938.7c0 2.1-1.5 3.8-3.6 3.8h-3v-7.6h3c2.1 0 3.6 1.7 3.6 3.8zm-1 0c0-1.6-1.1-2.9-2.6-2.9h-2v5.7h2c1.5.1 2.6-1.2 2.6-2.8zM67 941.6v1h-4.6V935h4.5v1h-3.5v2.3h3.2v.9h-3.2v2.4H67zM70 940.8l.9-.5c.3.8.9 1.4 2 1.4s1.6-.5 1.6-1.2c0-.8-.7-1-1.8-1.4-1.2-.4-2.4-.8-2.4-2.2 0-1.4 1.1-2.2 2.4-2.2 1.3 0 2.2.7 2.6 1.7l-.8.5c-.3-.7-.8-1.2-1.7-1.2-.8 0-1.4.4-1.4 1.1 0 .7.5 1 1.6 1.3 1.3.4 2.6.8 2.6 2.3 0 1.3-1.1 2.2-2.6 2.2-1.5.1-2.6-.7-3-1.8zM80 934.9v7.6h-1v-7.6h1zM91.3 939.2c0 1.9-1.4 3.5-3.7 3.5-2.4 0-4-1.8-4-4s1.7-4 4-4c1.4 0 2.7.8 3.3 1.8l-.9.5c-.4-.8-1.4-1.4-2.4-1.4-1.8 0-3 1.3-3 3s1.2 3 3 3c1.6 0 2.5-.9 2.7-2h-2.8v-.9h3.8v.5zM100.6 934.9v7.6h-.8l-3.9-5.7v5.7h-1v-7.6h.8l3.9 5.7v-5.7h1zM109.1 941.6v1h-4.6V935h4.5v1h-3.5v2.3h3.2v.9h-3.2v2.4h3.6zM119.2 938.7c0 2.1-1.5 3.8-3.6 3.8h-3v-7.6h3c2 0 3.6 1.7 3.6 3.8zm-1 0c0-1.6-1.1-2.9-2.6-2.9h-2v5.7h2c1.5.1 2.6-1.2 2.6-2.8zM133.2 940.4c0 1.2-1 2.2-2.2 2.2h-3.3V935h3c1.2 0 2.1.9 2.1 2.1 0 .7-.3 1.2-.8 1.6.7.2 1.2.8 1.2 1.7zm-4.5-4.6v2.3h2c.6 0 1.1-.5 1.1-1.2 0-.6-.5-1.2-1.1-1.2h-2zm3.5 4.5c0-.7-.5-1.2-1.2-1.2h-2.3v2.5h2.3c.7 0 1.2-.6 1.2-1.3zM139.4 939.4v3.1h-1v-3.1l-2.7-4.5h1.1l2.1 3.6 2.1-3.6h1.1l-2.7 4.5zM207.5 953.9v3.5h5v1.9h-5v5h-2v-12.4h7.3v1.9h-5.3zM214.5 951.4h1.9v12.9h-1.9v-12.9zM218.1 959.9c0-2.6 2.1-4.7 4.7-4.7s4.7 2 4.7 4.7c0 2.6-2.1 4.7-4.7 4.7-2.6-.1-4.7-2.1-4.7-4.7zm7.5 0c0-1.6-1.2-2.8-2.8-2.8s-2.8 1.2-2.8 2.8c0 1.6 1.2 2.8 2.8 2.8s2.8-1.2 2.8-2.8zM238.6 959.9c0 2.6-2 4.7-4.4 4.7-1.4 0-2.4-.6-3.1-1.5v4.8h-1.9v-12.4h1.9v1.3c.7-.9 1.7-1.5 3.1-1.5 2.4-.1 4.4 2 4.4 4.6zm-1.9 0c0-1.6-1.2-2.8-2.8-2.8-1.6 0-2.8 1.2-2.8 2.8 0 1.6 1.2 2.8 2.8 2.8 1.6 0 2.8-1.2 2.8-2.8zM249.8 959.9c0 2.6-2 4.7-4.4 4.7-1.4 0-2.4-.6-3.1-1.5v4.8h-1.9v-12.4h1.9v1.3c.7-.9 1.7-1.5 3.1-1.5 2.4-.1 4.4 2 4.4 4.6zm-1.9 0c0-1.6-1.2-2.8-2.8-2.8-1.6 0-2.8 1.2-2.8 2.8 0 1.6 1.2 2.8 2.8 2.8 1.6 0 2.8-1.2 2.8-2.8zM259.2 955.4l-3.4 9.1c-.8 2.2-2.3 3.4-4.3 3.3V966c1.2.1 1.9-.6 2.4-1.7l.1-.2-3.8-8.7h2.1l2.6 6.4 2.3-6.4h2zM846.1 938.7c0 2.1-1.5 3.8-3.6 3.8h-3v-7.6h3c2.1 0 3.6 1.7 3.6 3.8zm-.9 0c0-1.6-1.1-2.9-2.6-2.9h-2v5.7h2c1.5.1 2.6-1.2 2.6-2.8zM849.3 938.7c0-2.2 1.7-4 3.9-4s4 1.8 4 4-1.7 4-4 4c-2.2 0-3.9-1.8-3.9-4zm6.8 0c0-1.7-1.3-3-2.9-3-1.7 0-2.9 1.3-2.9 3s1.3 3 2.9 3c1.7 0 2.9-1.3 2.9-3zM859.8 934.9h1.1l1.7 6.3 1.9-6.3h1l1.9 6.3 1.7-6.3h1.1l-2.2 7.6h-1.2l-1.8-6.1-1.8 6.1H862l-2.2-7.6zM879.3 934.9v7.6h-.8l-3.9-5.7v5.7h-1v-7.6h.8l3.9 5.7v-5.7h1zM887.5 941.6v1h-4.3V935h1v6.7h3.3zM889.9 938.7c0-2.2 1.7-4 3.9-4s4 1.8 4 4-1.7 4-4 4c-2.2 0-3.9-1.8-3.9-4zm6.9 0c0-1.7-1.3-3-2.9-3-1.7 0-2.9 1.3-2.9 3s1.3 3 2.9 3c1.6 0 2.9-1.3 2.9-3zM905.4 940.8H902l-.6 1.7h-1.1l2.8-7.6h1.1l2.8 7.6h-1l-.6-1.7zm-.3-.9-1.4-3.8-1.4 3.8h2.8zM916.9 938.7c0 2.1-1.5 3.8-3.6 3.8h-3v-7.6h3c2.1 0 3.6 1.7 3.6 3.8zm-1 0c0-1.6-1.1-2.9-2.6-2.9h-2v5.7h2c1.6.1 2.6-1.2 2.6-2.8zM926.5 935.8v2.5h3.2v1h-3.2v3.2h-1v-7.6h4.4v1h-3.4zM936.2 939.6h-1.8v2.9h-1v-7.6h3c1.3 0 2.4 1.1 2.4 2.4 0 1-.7 1.9-1.6 2.2l1.8 3.1h-1.1l-1.7-3zm-1.8-.9h2c.8 0 1.4-.6 1.4-1.4 0-.8-.6-1.4-1.4-1.4h-2v2.8zM941.9 938.7c0-2.2 1.7-4 3.9-4s4 1.8 4 4-1.7 4-4 4c-2.2 0-3.9-1.8-3.9-4zm6.9 0c0-1.7-1.3-3-2.9-3-1.7 0-2.9 1.3-2.9 3s1.3 3 2.9 3c1.6 0 2.9-1.3 2.9-3zM960.4 942.5h-1v-6l-2.5 4.2h-.1l-2.5-4.1v5.9h-1v-7.6h1.1l2.4 4 2.4-4h1.1v7.6zM839.3 952.9c0-.7.5-1.2 1.2-1.2s1.2.5 1.2 1.2-.5 1.2-1.2 1.2c-.6 0-1.2-.5-1.2-1.2zm.3 2.5h1.9v8.9h-1.9v-8.9zM843.7 951.4h1.9v12.9h-1.9v-12.9zM847.8 951.4h1.9v12.9h-1.9v-12.9zM852 951.4h1.9v12.9H852v-12.9zM864 955.4v8.9h-1.9v-1.1c-.6.9-1.5 1.4-2.7 1.4-2 0-3.4-1.3-3.4-3.6v-5.4h1.9v5.2c0 1.3.8 2.1 2 2.1 1.3 0 2.2-.7 2.2-2.5v-4.7h1.9zM872.6 961.8c0 1.8-1.5 2.7-3.5 2.7-1.8 0-3-.8-3.6-2.1l1.6-1c.3.8 1 1.3 2 1.3.8 0 1.5-.3 1.5-1 0-1.6-4.8-.7-4.8-3.9 0-1.7 1.4-2.7 3.2-2.7 1.5 0 2.7.7 3.3 1.8l-1.6.9c-.3-.7-.9-1-1.7-1-.7 0-1.3.3-1.3.9.2 1.8 4.9.8 4.9 4.1zM876.7 957.3v4.2c0 1.1.7 1.1 2.2 1v1.7c-2.9.4-4.1-.5-4.1-2.8v-4.2h-1.6v-1.8h1.6v-1.9l1.9-.6v2.5h2.2v1.8h-2.2zM885.4 955.3v2.1c-1.3-.1-2.7.5-2.7 2.5v4.5h-1.9v-8.9h1.9v1.5c.5-1.3 1.5-1.7 2.7-1.7zM895.3 955.4v8.9h-1.9V963c-.7.9-1.7 1.5-3.1 1.5-2.4 0-4.4-2-4.4-4.7 0-2.6 2-4.7 4.4-4.7 1.4 0 2.4.6 3.1 1.5v-1.3h1.9zm-1.9 4.5c0-1.6-1.2-2.8-2.8-2.8-1.6 0-2.8 1.2-2.8 2.8 0 1.6 1.2 2.8 2.8 2.8 1.6 0 2.8-1.2 2.8-2.8zM900.3 957.3v4.2c0 1.1.7 1.1 2.2 1v1.7c-2.9.4-4.1-.5-4.1-2.8v-4.2h-1.6v-1.8h1.6v-1.9l1.9-.6v2.5h2.2v1.8h-2.2zM903.9 952.9c0-.7.5-1.2 1.2-1.2s1.2.5 1.2 1.2-.5 1.2-1.2 1.2c-.6 0-1.2-.5-1.2-1.2zm.3 2.5h1.9v8.9h-1.9v-8.9zM907.8 959.9c0-2.6 2.1-4.7 4.7-4.7s4.7 2 4.7 4.7c0 2.6-2.1 4.7-4.7 4.7-2.6-.1-4.7-2.1-4.7-4.7zm7.5 0c0-1.6-1.2-2.8-2.8-2.8-1.6 0-2.8 1.2-2.8 2.8 0 1.6 1.2 2.8 2.8 2.8 1.6 0 2.8-1.2 2.8-2.8zM927 958.9v5.4h-1.9v-5.2c0-1.3-.8-2.1-2-2.1-1.3 0-2.2.7-2.2 2.5v4.7H919v-8.9h1.9v1.1c.6-.9 1.5-1.4 2.7-1.4 1.9.2 3.4 1.6 3.4 3.9zM935.5 961.8c0 1.8-1.5 2.7-3.5 2.7-1.8 0-3-.8-3.6-2.1l1.6-1c.3.8 1 1.3 2 1.3.8 0 1.5-.3 1.5-1 0-1.6-4.8-.7-4.8-3.9 0-1.7 1.4-2.7 3.2-2.7 1.5 0 2.7.7 3.3 1.8l-1.6.9c-.3-.7-.9-1-1.7-1-.7 0-1.3.3-1.3.9.1 1.8 4.9.8 4.9 4.1zM936.8 963.2c0-.7.6-1.3 1.3-1.3.7 0 1.3.6 1.3 1.3 0 .7-.6 1.3-1.3 1.3-.7 0-1.3-.6-1.3-1.3zM940.3 959.9c0-2.6 2-4.7 4.7-4.7 1.7 0 3.2.9 3.9 2.3l-1.6 1c-.4-.8-1.3-1.4-2.3-1.4-1.6 0-2.7 1.2-2.7 2.8 0 1.6 1.2 2.8 2.7 2.8 1.1 0 1.9-.5 2.4-1.4l1.6.9c-.7 1.4-2.2 2.3-4 2.3-2.7 0-4.7-2-4.7-4.6zM949.7 959.9c0-2.6 2.1-4.7 4.7-4.7s4.7 2 4.7 4.7c0 2.6-2.1 4.7-4.7 4.7-2.6-.1-4.7-2.1-4.7-4.7zm7.5 0c0-1.6-1.2-2.8-2.8-2.8s-2.8 1.2-2.8 2.8c0 1.6 1.2 2.8 2.8 2.8s2.8-1.2 2.8-2.8z" class="st1"/><path id="XMLID_29_" d="M632 350.4H388.6c-3 0-6 1.2-8.1 3.4l-27.1 27.1c-2.2 2.2-3.4 5.1-3.4 8.1v243.4c0 9.9 8.1 18 18 18h264c9.9 0 18-8.1 18-18v-264c0-9.9-8.1-18-18-18z" style="fill:#4b94a5;stroke:#4b94a5;stroke-width:6;stroke-linecap:round;stroke-linejoin:round;stroke-miterlimit:10"/><path id="XMLID_9_" d="M620.1 336.9H376.7c-3 0-6 1.2-8.1 3.4l-27.1 27.1c-2.2 2.2-3.4 5.1-3.4 8.1v243.4c0 9.9 8.1 18 18 18h264c9.9 0 18-8.1 18-18v-264c0-9.9-8.1-18-18-18z" style="fill:#747178"/><circle id="XMLID_24_" cx="488.1" cy="491.9" r="126.7" style="opacity:.43;fill:#514e55;stroke:#464349;stroke-width:4;stroke-miterlimit:10"/><path id="XMLID_16_" d="M620.1 336.9H376.7c-3 0-6 1.2-8.1 3.4l-27.1 27.1c-2.2 2.2-3.4 5.1-3.4 8.1v243.4c0 9.9 8.1 18 18 18h264c9.9 0 18-8.1 18-18v-264c0-9.9-8.1-18-18-18z" class="st6"/><path id="XMLID_2_" d="M620.1 336.9H376.7c-3 0-6 1.2-8.1 3.4l-27.1 27.1c-2.2 2.2-3.4 5.1-3.4 8.1v243.4c0 9.9 8.1 18 18 18h264c9.9 0 18-8.1 18-18v-264c0-9.9-8.1-18-18-18z" class="st6"/><circle id="XMLID_15_" cx="488.1" cy="491.9" r="42" style="fill:#c9c9c9"/><circle id="XMLID_17_" cx="488.1" cy="491.9" r="42" class="st6"/><path id="XMLID_21_" d="M592.1 636.9h-208v-25c0-9.9 8.1-18 18-18h172c9.9 0 18 8.1 18 18v25z" class="st1"/><path id="XMLID_18_" d="M592.1 636.9h-208v-25c0-9.9 8.1-18 18-18h172c9.9 0 18 8.1 18 18v25z" class="st6"/><path id="XMLID_28_" d="M605.6 593.9h14v14h-14z" class="st1"/><path id="XMLID_22_" d="M605.6 593.9h14v14h-14z" class="st6"/><path id="XMLID_32_" d="M530.1 580.6h67" class="st8"/><path id="XMLID_33_" d="M482.6 485.9h9v9h-9z" class="st1"/><path id="XMLID_31_" d="M482.6 485.9h9v9h-9z" class="st6"/><path id="XMLID_38_" d="M490 504.4h20v10h-20z" class="st1" transform="rotate(-19.323 499.975 509.404)"/><path id="XMLID_35_" d="M490 504.4h20v10h-20z" class="st6" transform="rotate(-19.323 499.975 509.404)"/><path id="XMLID_44_" d="M638.1 398.9c-6.6 0-12-5.4-12-12s5.4-12 12-12v24z" class="st1"/><path id="XMLID_42_" d="M638.1 398.9c-6.6 0-12-5.4-12-12s5.4-12 12-12v24z" class="st6"/><path id="XMLID_49_" d="M338.1 398.9c6.6 0 12-5.4 12-12s-5.4-12-12-12v24z" class="st1"/><path id="XMLID_48_" d="M338.1 398.9c6.6 0 12-5.4 12-12s-5.4-12-12-12v24z" class="st6"/><g id="XMLID_39_"><circle id="XMLID_37_" cx="359.8" cy="414.4" r="8.5" class="st1"/><circle id="XMLID_46_" cx="610.3" cy="414.4" r="8.5" class="st1"/></g><path id="XMLID_23_" d="M579.1 428.9h-138c-9.9 0-18-8.1-18-18v-74h174v74c0 10-8.1 18-18 18z" class="st9"/><path id="XMLID_34_" d="M535.1 428.9h-88c-9.9 0-18-8.1-18-18v-74h124v74c0 10-8.1 18-18 18z" style="opacity:.48;fill:none;stroke:#413e51;stroke-width:6;stroke-linecap:round;stroke-linejoin:round;stroke-miterlimit:10"/><path id="XMLID_14_" d="M579.1 428.9h-138c-9.9 0-18-8.1-18-18v-74h174v74c0 10-8.1 18-18 18z" class="st6"/><path id="XMLID_30_" d="M547.1 349.9h33.5" class="st8"/><path id="XMLID_20_" d="M529.1 428.9h-88c-9.9 0-18-8.1-18-18v-74h124v74c0 10-8.1 18-18 18z" style="fill:#bfc1c0"/><path id="XMLID_51_" d="m495.6 428.9 51.5-71.1v-16.3l-64.9 87.4z" class="st12"/><path id="XMLID_50_" d="M444.4 428.6c1.2.2-4.6.4-3.3.4h29.8l68.7-92h-26.8l-68.4 91.6z" class="st12"/><path id="XMLID_19_" d="M529.1 428.9h-88c-9.9 0-18-8.1-18-18v-74h124v74c0 10-8.1 18-18 18z" class="st6"/><path id="XMLID_26_" d="M445.7 347.9h24v58h-24z" class="st9"/><path id="XMLID_1_" d="M445.7 347.9h13.4v58h-13.4z" style="opacity:.48;fill:#413e51"/><path id="XMLID_25_" d="M445.7 347.9h24v58h-24z" class="st6"/><path id="XMLID_27_" d="M522.2 347.9h12v6h-12z" class="st6"/><path id="XMLID_5_" d="M361.4 636.9v-24" class="st6"/></svg>